<?xml version="1.0" encoding="utf-8"?>
<!-- Generator: Adobe Illustrator 23.0.1, SVG Export Plug-In . SVG Version: 6.00 Build 0)  -->
<svg version="1.1" id="Слой_1" xmlns="http://www.w3.org/2000/svg" xmlns:xlink="http://www.w3.org/1999/xlink" x="0px" y="0px"
	 viewBox="0 0 40 40" style="enable-background:new 0 0 40 40;" xml:space="preserve">
<style type="text/css">
	.st0{fill-rule:evenodd;clip-rule:evenodd;fill:#41479B;}
	.st1{fill:#F5F5F5;}
	.st2{fill:#FF4B55;}
	.st3{fill:#FFFFFF;}
</style>
<path class="st0" d="M36,40H4c-2.2,0-4-1.8-4-4V4c0-2.2,1.8-4,4-4h32c2.2,0,4,1.8,4,4v32C40,38.2,38.2,40,36,40z"/>
<title>flag</title>
<desc>Created with Sketch.</desc>
<g>
	<path class="st1" d="M21.3,1H20l-6.8,4.5V1H9.5v4.5L2.7,1H1.4C1,1,0.7,1.3,0.7,1.7v0.6l5.8,3.8H0.7v3.7h5.8l-5.8,3.8v0.6
		c0,0.4,0.3,0.7,0.7,0.7h1.3l6.8-4.5v4.5h3.7v-4.5l6.8,4.5h1.3c0.4,0,0.7-0.3,0.7-0.7v-0.6l-5.8-3.8H22V6.1h-5.8L22,2.3V1.7
		C22,1.3,21.7,1,21.3,1z"/>
	<g>
		<polygon class="st2" points="22,6.8 12.5,6.8 12.5,1 10.3,1 10.3,6.8 0.7,6.8 0.7,9.1 10.3,9.1 10.3,14.9 12.5,14.9 12.5,9.1 
			22,9.1 		"/>
		<path class="st2" d="M8.8,6.1l-7.7-5C0.9,1.2,0.7,1.4,0.7,1.7v0l6.7,4.4L8.8,6.1L8.8,6.1z"/>
		<path class="st2" d="M14.6,6.1l7.4-4.8C21.8,1.1,21.6,1,21.3,1h-0.2l-7.9,5.1H14.6z"/>
		<path class="st2" d="M8.2,9.8l-7.3,4.8c0.1,0.2,0.4,0.4,0.6,0.4h0.1l7.9-5.1L8.2,9.8L8.2,9.8z"/>
		<path class="st2" d="M22,14.3l-6.9-4.5h-1.3l7.8,5.1C21.8,14.7,22,14.5,22,14.3z"/>
	</g>
	<g>
		<path class="st1" d="M7.2,26.3l0.6,1.8l1.8-0.7c0.2-0.1,0.3,0.1,0.2,0.2l-1.1,1.6l1.7,0.9c0.1,0.1,0.1,0.3-0.1,0.3l-1.9,0.1
			l0.3,1.9c0,0.2-0.2,0.3-0.3,0.1L7,31.3l-1.3,1.4c-0.1,0.1-0.3,0-0.3-0.1l0.3-1.9l-1.9-0.1c-0.2,0-0.2-0.2-0.1-0.3l1.7-0.9
			l-1.1-1.6c-0.1-0.1,0-0.3,0.2-0.2l1.8,0.7l0.6-1.8C6.9,26.2,7.1,26.2,7.2,26.3z"/>
		<path class="st1" d="M29,13.3l0.3,0.9l0.9-0.3c0.1,0,0.1,0.1,0.1,0.1l-0.5,0.8l0.8,0.5c0.1,0,0,0.1,0,0.2l-0.9,0.1l0.1,0.9
			c0,0.1-0.1,0.1-0.1,0.1l-0.6-0.7l-0.6,0.7c-0.1,0.1-0.2,0-0.1-0.1l0.1-0.9l-0.9-0.1c-0.1,0-0.1-0.1,0-0.2l0.8-0.5L27.6,14
			c0-0.1,0-0.2,0.1-0.1l0.9,0.3l0.3-0.9C28.9,13.3,29,13.3,29,13.3z"/>
		<path class="st1" d="M23,20.2l0.3,0.9l0.9-0.3c0.1,0,0.1,0.1,0.1,0.1l-0.5,0.8l0.8,0.5c0.1,0,0,0.1,0,0.2l-0.9,0.1l0.1,0.9
			c0,0.1-0.1,0.1-0.1,0.1l-0.6-0.7l-0.6,0.7c-0.1,0.1-0.2,0-0.1-0.1l0.1-0.9l-0.9-0.1c-0.1,0-0.1-0.1,0-0.2l0.8-0.5l-0.5-0.8
			c0-0.1,0-0.2,0.1-0.1l0.9,0.3l0.3-0.9C22.9,20.1,23,20.1,23,20.2z"/>
		<path class="st1" d="M34.7,17.3l0.3,0.9l0.9-0.3c0.1,0,0.1,0.1,0.1,0.1l-0.5,0.8l0.8,0.5c0.1,0,0,0.1,0,0.2l-0.9,0.1l0.1,0.9
			c0,0.1-0.1,0.1-0.1,0.1l-0.6-0.7L34,20.4c-0.1,0.1-0.2,0-0.1-0.1l0.1-0.9l-0.9-0.1c-0.1,0-0.1-0.1,0-0.2l0.8-0.5l-0.5-0.8
			c0-0.1,0-0.2,0.1-0.1l0.9,0.3l0.3-0.9C34.6,17.2,34.7,17.2,34.7,17.3z"/>
		<path class="st1" d="M29,29l0.3,0.9l0.9-0.3c0.1,0,0.1,0.1,0.1,0.1l-0.5,0.8l0.8,0.5c0.1,0,0,0.1,0,0.2l-0.9,0.1l0.1,0.9
			c0,0.1-0.1,0.1-0.1,0.1l-0.6-0.7l-0.6,0.7c-0.1,0.1-0.2,0-0.1-0.1l0.1-0.9l-0.9-0.1c-0.1,0-0.1-0.1,0-0.2l0.8-0.5l-0.5-0.8
			c0-0.1,0-0.2,0.1-0.1l0.9,0.3l0.3-0.9C28.9,28.9,29,28.9,29,29z"/>
		<path class="st1" d="M31.1,21.8l-0.2,0.7l-0.7,0c-0.1,0-0.1,0.1-0.1,0.2l0.6,0.4l-0.2,0.7c0,0.1,0.1,0.2,0.1,0.1l0.6-0.4l0.6,0.4
			c0.1,0.1,0.2,0,0.1-0.1L31.7,23l0.6-0.4c0.1-0.1,0-0.2-0.1-0.2l-0.7,0l-0.2-0.7C31.3,21.7,31.1,21.7,31.1,21.8z"/>
	</g>
</g>
<g>
	<path class="st3" d="M37,1c1.1,0,2,0.9,2,2v34c0,1.1-0.9,2-2,2H3c-1.1,0-2-0.9-2-2V3c0-1.1,0.9-2,2-2H37 M37,0H3C1.3,0,0,1.3,0,3
		v34c0,1.7,1.3,3,3,3h34c1.7,0,3-1.3,3-3V3C40,1.3,38.7,0,37,0L37,0z"/>
</g>
</svg>
