<svg xmlns="http://www.w3.org/2000/svg" width="187" height="40" viewBox="0 0 187 40">
  <path fill="#394791" fill-rule="evenodd" d="M69.472,2.069 C69.68,2.383 69.325,2.521 69.122,2.661 C68.838,2.854 68.531,3.014 68.232,3.184 C65.581,4.691 63.576,6.862 61.901,9.365 C59.687,12.673 58.034,16.28 56.311,19.852 C54.493,23.622 52.548,27.322 50.115,30.745 C47.653,34.208 44.572,36.905 40.622,38.554 C40.486,38.611 40.359,38.687 40.227,38.754 L40.236,38.878 C40.626,38.923 41.016,38.978 41.408,39.012 C43.71,39.21 45.981,39.118 48.177,38.297 C49.587,37.77 50.757,36.893 51.817,35.852 C53.712,33.989 55.365,31.924 56.917,29.772 C58.287,27.874 60.083,26.438 62.014,25.158 C63.364,24.263 64.771,23.476 66.351,23.059 C67.175,22.842 68.011,22.732 68.859,22.949 C69.782,23.185 70.295,23.809 70.466,24.715 C70.746,26.207 70.419,27.641 69.791,28.965 C69.136,30.346 68.305,31.643 67.548,32.974 C67.457,33.134 67.343,33.281 67.218,33.467 C68.169,33.918 69.024,33.673 69.87,33.296 C71.239,32.684 72.269,31.652 73.22,30.541 C74.67,28.851 76.07,27.119 77.526,25.436 C78.118,24.751 78.756,24.086 79.456,23.516 C80.816,22.408 82.179,22.783 82.93,24.385 C83.415,25.418 83.343,26.452 83.006,27.498 C82.932,27.726 82.858,27.954 82.864,28.211 C83.517,27.437 84.124,26.618 84.836,25.902 C85.694,25.039 86.587,24.194 87.562,23.47 C88.756,22.582 90.31,22.616 91.281,23.44 C92.311,24.313 92.732,25.464 92.635,26.793 C92.555,27.876 92.149,28.873 91.609,29.793 C90.667,31.401 89.644,32.961 88.696,34.564 C88.243,35.329 87.873,36.144 87.491,36.949 C87.3978613,37.1648342 87.3515102,37.3979532 87.355,37.633 C87.351,38.227 87.653,38.597 88.234,38.548 C88.712,38.508 89.229,38.356 89.634,38.103 C90.881,37.323 91.87,36.243 92.804,35.118 C92.904,34.998 92.949,34.809 92.967,34.647 C93.21,32.546 94.206,30.86 95.807,29.517 C96.439,28.987 97.162,28.692 98.017,28.781 C98.155,28.795 98.356,28.701 98.447,28.59 C99.9922001,26.7144773 101.526227,24.8297772 103.049,22.936 C103.208,22.739 103.286,22.464 103.362,22.213 C103.788,20.8 104.382,19.472 105.472,18.444 C105.783,18.15 106.231,17.934 106.652,17.838 C107.226,17.706 107.559,18.107 107.388,18.68 C107.278,19.048 107.105,19.425 106.863,19.72 C106.149,20.59 105.459,21.502 104.623,22.244 C103.833,22.944 103.628,23.742 103.689,24.704 C103.771,25.989 104.212,27.178 104.651,28.37 C105.044,29.44 105.502,30.496 105.786,31.596 C106.346,33.772 105.546,35.546 103.906,36.963 C101.859,38.733 99.45,39.449 96.764,39.254 C94.96,39.123 93.411,37.926 93.063,36.124 C93.055,36.083 93.018,36.047 92.953,35.94 C92.81,36.074 92.686,36.196 92.555,36.31 C91.637,37.11 90.78,38.001 89.784,38.69 C87.434,40.316 85.148,38.387 84.941,36.14 C84.796,34.568 85.358,33.215 86.184,31.942 C87.285,30.248 88.422,28.576 89.508,26.872 C89.867,26.308 90.163,25.692 90.403,25.067 C90.787,24.069 90.227,23.407 89.17,23.568 C88.358,23.693 87.67,24.104 87.037,24.603 C85.445,25.857 84.181,27.416 82.978,29.025 C80.713,32.055 78.773,35.295 76.935,38.596 C76.727,38.97 76.507,39.065 76.086,39.042 C75.182,38.992 74.273,39.029 73.366,39.035 C73.183,39.037 73.001,39.058 72.717,39.075 C73.215,38.285 73.665,37.575 74.107,36.862 C75.878,33.997 77.677,31.149 79.402,28.257 C80.008,27.241 80.452,26.125 80.928,25.037 C81.055,24.749 81.073,24.395 81.065,24.072 C81.054,23.652 80.733,23.435 80.35,23.606 C80.014,23.756 79.665,23.959 79.426,24.23 C78.1579042,25.6594115 76.9111001,27.1075711 75.686,28.574 C74.543,29.947 73.508,31.412 72.127,32.572 C71.18,33.368 70.175,34.078 68.917,34.234 C68.343,34.304 67.737,34.222 67.159,34.124 C66.844,34.07 66.682,34.114 66.495,34.367 C65.465,35.757 64.355,37.076 62.924,38.077 C62.151,38.618 61.331,39.075 60.377,39.227 C58.304,39.558 56.788,38.493 55.912,36.83 C55.305,35.677 55.224,34.44 55.414,33.17 L55.281,33.052 L55.0904815,33.3482963 C55.0576667,33.3966667 55.0233333,33.4436667 54.986,33.488 C53.767,34.924 52.511,36.321 51.012,37.48 C49.124,38.942 46.964,39.627 44.608,39.77 C42.61,39.892 40.636,39.705 38.658,39.414 C38.089,39.331 37.474,39.628 36.873,39.684 C35.816,39.781 34.754,39.829 33.693,39.894 C33.586,39.9 33.448,39.907 33.373,39.85 C33.138,39.673 32.803,39.5 32.736,39.26 C32.633,38.892 32.981,38.65 33.311,38.583 C33.86,38.473 34.424,38.388 34.981,38.389 C35.701,38.39 36.439,38.399 37.132,38.561 C38.229,38.819 39.122,38.396 40.029,37.923 C42.46,36.654 44.209,34.677 45.574,32.37 C47.168,29.676 48.654,26.917 50.169,24.176 C52.442,20.06 54.672,15.917 57.382,12.064 C60.047,8.274 63.348,5.145 67.302,2.719 C67.7846563,2.42928833 68.2927673,2.18427037 68.82,1.987 C69.009,1.914 69.39,1.945 69.472,2.069 Z M69.654,0.094 C70.264,0.748 70.146,1.232 69.282,1.42 C65.568,2.224 62.432,4.127 59.566,6.529 C56.176,9.372 53.243,12.649 50.543,16.146 C47.151,20.536 43.786,24.949 40.303,29.266 C38.087,32.013 35.625,34.552 32.747,36.638 C31.205,37.755 29.547,38.666 27.727,39.258 C27.595,39.301 27.449,39.349 27.317,39.333 C27.181,39.316 26.96,39.239 26.946,39.159 C26.923,39.029 26.997,38.814 27.103,38.739 C30.045,36.684 31.777,33.76 32.961,30.477 C34.5270162,26.1148468 36.0613899,21.7413985 37.564,17.357 C38.868,13.57 40.325,9.854 42.483,6.457 C43.136,5.428 43.882,4.457 44.673,3.337 C44.369,3.613 44.154,3.788 43.961,3.986 C41.976,6.011 40.281,8.274 38.841,10.701 C36.875,14.015 35.021,17.396 33.156,20.768 C31.554,23.664 29.956,26.563 27.926,29.184 C24.61,33.469 20.528,36.792 15.416,38.72 C12.428,39.846 9.332,40.206 6.17,39.608 C4.252,39.245 2.517,38.485 1.188,36.987 C-0.206,35.414 -0.399,32.957 0.747,31.367 C1.501,30.321 2.537,29.938 3.794,30.162 C4.557,30.297 5.006,30.822 5.126,31.66 C5.34,33.148 4.319,34.474 2.949,34.488 C2.048,34.496 1.514,34.01 1.432,33.111 C1.414,32.914 1.377,32.719 1.348,32.524 L1.198,32.503 C1.142,32.739 1.058,32.973 1.033,33.213 C0.838,35.124 1.683,36.504 3.252,37.507 C4.788,38.49 6.498,38.867 8.292,38.964 C11.753,39.151 14.875,38.15 17.775,36.321 C20.865,34.373 23.362,31.789 25.705,29.03 C28.19,26.1 30.171,22.83 32.173,19.572 C34.061,16.501 35.888,13.39 37.853,10.369 C39.823,7.339 42.083,4.527 44.883,2.204 C45.368,1.803 45.973,1.538 46.549,1.264 C46.703,1.19 46.952,1.315 47.158,1.349 C47.111,1.548 47.126,1.796 47.01,1.937 C45.242,4.087 44.207,6.608 43.398,9.22 C42.216,13.036 41.162,16.892 39.983,20.71 C39.05,23.732 37.957,26.7 36.542,29.54 C35.154,32.324 33.354,34.782 30.941,36.769 C30.8418905,36.8413982 30.7768242,36.9512881 30.761,37.073 C30.897,36.993 31.037,36.921 31.167,36.835 C34.024,34.935 36.539,32.653 38.618,29.927 C42.078,25.391 45.482,20.813 48.913,16.255 C51.186,13.235 53.474,10.225 56.198,7.588 C59.078,4.798 62.253,2.423 66.044,0.991 C66.862,0.682 67.725,0.496 68.566,0.251 C68.712,0.208 68.853,0.147 68.996,0.094 L69.654,0.094 Z M170.939911,-0.000118518518 L171.532207,2.76225185 C171.970726,4.80847407 172.4128,6.8386963 172.960652,8.81765926 C173.501393,10.7969185 174.1568,12.7261037 175.020504,14.5326222 C175.91917,16.3744 176.854281,18.2120296 178.072948,19.6440296 C178.684504,20.3598815 179.3648,20.9755852 180.125096,21.4626963 C180.774239,21.8832677 181.479545,22.2139344 182.224408,22.4713027 L182.600059,22.5939556 L185.853985,23.5972148 L182.822874,25.3776593 L181.233244,26.3115852 C180.660207,26.6301037 179.999467,26.9569185 179.245096,27.1812148 C178.901393,27.2866963 178.5408,27.355437 178.178133,27.3986963 C178.192059,27.4167704 178.204504,27.435437 178.21843,27.4532148 C178.875911,28.2902519 179.616652,29.0932148 180.429985,29.8351407 C181.245689,30.5726222 182.111763,31.2843259 183.048356,31.897363 C183.515022,32.2064 183.995319,32.4997333 184.496948,32.7498074 C184.74643,32.8748444 185.001837,32.9975111 185.26317,33.0911407 C185.436998,33.1586963 185.613853,33.2179556 185.794353,33.26409 L186.067911,33.3228444 L186.079763,33.4988444 L186.101689,33.5258074 L186.092319,33.5349926 L186.092319,33.5349926 L186.082726,33.5441778 L186.088652,33.6295111 C186.048948,33.6395852 186.008652,33.6469926 185.968652,33.6552889 C184.877096,34.7501037 183.456948,35.5344 181.955319,36.0010667 C180.388504,36.5009185 178.738133,36.6591407 177.111467,36.6455111 C173.829985,36.6046222 170.773096,35.6209185 167.694578,35.193363 C166.155911,34.9729185 164.6128,34.8701037 163.06317,34.955437 C161.515319,35.0292148 159.971319,35.2665481 158.463467,35.6541037 C156.952059,36.0298074 155.475022,36.5616593 154.060504,37.2324741 C152.803417,37.8290173 151.587768,38.5278668 150.495132,39.3964466 L150.091319,39.7302519 L150.000059,39.6312889 C151.134578,38.515437 152.471763,37.6167704 153.871763,36.8618074 C155.271763,36.1015111 156.750578,35.4751407 158.281837,35.0046222 C159.814578,34.5397333 161.397985,34.2259556 163.000948,34.0807704 C164.601837,33.9228444 166.229689,33.9619556 167.824652,34.1219556 C169.421393,34.2786963 170.992059,34.5352889 172.549096,34.7477333 C174.103763,34.9681778 175.641244,35.1989926 177.164504,35.297363 C177.927763,35.3536593 178.692504,35.363437 179.453985,35.3302519 C180.216948,35.3077333 180.973985,35.2155852 181.724207,35.0807704 C183.037096,34.8345481 184.318874,34.3957333 185.515319,33.7210667 C185.081244,33.7557333 184.644207,33.7207704 184.218133,33.6659556 C183.6048,33.5717333 183.001541,33.4241778 182.413985,33.2336593 C181.243319,32.843437 180.116207,32.3195852 179.062578,31.6615111 C178.004504,31.0096593 177.011615,30.233363 176.110578,29.3332148 C175.657244,28.8858074 175.23443,28.3998815 174.84243,27.8819556 C174.526459,27.469037 174.233244,27.0331733 173.967033,26.5754264 L173.772504,26.2280296 L172.104059,23.1278815 L175.615763,24.0072889 C176.125985,24.1352889 176.619911,24.2259556 177.074726,24.2520296 C177.5328,24.2784 177.938726,24.2226963 178.363911,24.1115852 C178.497541,24.0766222 178.635319,24.0298074 178.775763,23.9779556 C178.681541,23.9112889 178.583467,23.8502519 178.491319,23.7809185 C177.535467,23.0671407 176.705837,22.2022519 176.016948,21.2798815 C175.325985,20.3563259 174.756504,19.387437 174.261393,18.4138074 C173.762133,17.4345481 173.329837,16.481363 172.90317,15.4881778 C172.043319,13.4775111 171.437393,11.3972148 170.961244,9.3186963 C170.691319,8.12521481 170.467615,6.93114074 170.2608,5.73973333 C169.759763,6.72077037 169.237689,7.69321481 168.677985,8.64699259 C167.656059,10.3942519 166.526578,12.0884741 165.244207,13.6641778 C163.961541,15.2395852 162.522726,16.6905481 160.923022,17.9379556 C159.469285,19.0703461 157.872052,20.0207961 156.176068,20.7165114 L155.664356,20.9175111 L155.54643,20.633363 C157.350874,19.8132148 158.994133,18.6872889 160.468504,17.3886222 C161.945244,16.089363 163.25043,14.6058074 164.396504,13.0144 C165.543763,11.4206222 166.537244,9.71958519 167.4288,7.96432593 C168.139674,6.55845926 168.795556,5.12206222 169.41738,3.66545067 L169.877689,2.56936296 L170.939911,-0.000118518518 Z M127.809,9.019 L116.654,27.097 L116.702,27.098 C117.726,26.11 118.732,25.101 119.785,24.146 C120.197,23.773 120.698,23.477 121.198,23.226 C122.908,22.366 124.623,22.995 125.425,24.734 C126.098,26.196 125.912,27.65 125.197,28.993 C124.308,30.661 123.259,32.243 122.304,33.877 C121.736,34.848 121.194,35.837 120.685,36.841 C120.553,37.101 120.543,37.446 120.552,37.75 C120.567,38.228 120.835,38.544 121.312,38.53 C121.762,38.516 122.256,38.425 122.647,38.214 C123.912,37.534 124.847,36.454 125.763,35.384 C127.25,33.645 128.643,31.837 129.849,29.88 C130.827,28.294 132.255,27.122 133.796,26.106 C135.792,24.791 137.883,23.653 140.224,23.074 C140.876006,22.9096244 141.548036,22.8385832 142.22,22.863 C144.206,22.952 145.191,24.703 144.303,26.481 C143.749,27.592 142.776,28.247 141.727,28.799 C139.826,29.801 137.761,30.332 135.689,30.831 C134.898,31.022 134.096,31.171 133.306,31.367 C133.113,31.415 132.867,31.535 132.784,31.694 C132.271,32.676 131.754,33.662 131.329,34.683 C131.136,35.145 131.092,35.691 131.08,36.202 C131.047,37.679 131.773,38.432 133.25,38.518 C134.43,38.585 135.506,38.228 136.532,37.682 C138.032,36.884 139.262,35.745 140.44,34.546 C142.886,32.056 144.888,29.197 147.103,26.516 C147.917537,25.5230383 148.79253,24.581251 149.723,23.696 C150.143,23.299 150.746,22.967 151.309,22.876 C152.517,22.682 153.419,23.443 153.717,24.68 C154.021,25.94 153.799,27.139 153.332,28.311 C153.097,28.902 152.83,29.481 152.617,30.101 C153.177,29.535 153.93,29.184 154.283,28.403 C155.021,26.776 155.979,25.293 157.306,24.08 C157.954,23.487 158.647,22.934 159.578,22.851 C159.992,22.814 160.416,22.814 160.666,23.228 C160.91,23.63 160.838,24.048 160.62,24.434 C160.098,25.358 159.303,26.027 158.456,26.624 C157.483,27.308 156.498,27.984 155.467,28.576 C154.81,28.953 154.402,29.424 154.35,30.172 C154.304,30.825 154.217,31.49 154.287,32.134 C154.404,33.205 155.293,33.741 156.387,33.49 C157.319,33.277 158.093,32.768 158.749,32.103 C159.342,31.503 159.869,30.838 160.429,30.205 C160.656,29.947 160.87,29.669 161.135,29.455 C161.26,29.355 161.49,29.385 161.672,29.355 C161.662,29.528 161.707,29.735 161.628,29.865 C161.452,30.159 161.238,30.44 160.997,30.681 C160.123,31.555 159.277,32.464 158.331,33.255 C157.497,33.955 156.484,34.318 155.356,34.155 C154.365,34.012 153.731,33.413 153.6,32.415 C153.525,31.847 153.573,31.263 153.573,30.685 C153.573,30.533 153.604,30.381 153.636,30.085 C153.408,30.28 153.273,30.388 153.146,30.506 C151.435,32.112 150.19,34.068 148.994,36.059 C148.469,36.932 147.952,37.81 147.452,38.698 C147.292,38.984 147.103,39.062 146.776,39.05 C145.87,39.016 144.961,39.034 144.054,39.037 C143.854,39.037 143.654,39.059 143.366,39.077 C143.49,38.859 143.57,38.713 143.656,38.571 C145.778,35.077 147.932,31.601 150.006,28.078 C150.65,26.981 151.08,25.758 151.597,24.586 C151.657,24.449 151.667,24.279 151.662,24.125 C151.648,23.651 151.319,23.405 150.904,23.63 C150.47,23.866 150.031,24.155 149.71,24.522 C148.401,26.019 147.091,27.52 145.866,29.085 C143.962,31.517 142.135,34.008 139.822,36.085 C138.578,37.202 137.259,38.202 135.69,38.819 C134.496,39.287 133.274,39.469 132.016,39.088 C130.084808,38.5001397 128.716491,36.7817884 128.576,34.768 C128.539,34.216 128.571,33.659 128.571,33.105 L128.453,33.064 C128.273,33.289 128.091,33.512 127.913,33.738 C126.643,35.357 125.325,36.93 123.699,38.212 C123.417,38.434 123.109,38.624 122.803,38.814 C120.863,40.016 118.59,38.795 118.136,36.659 C117.832,35.229 118.198,33.899 118.896,32.683 C119.869,30.987 120.96,29.359 121.971,27.684 C122.496,26.814 122.965,25.91 123.441,25.013 C123.647,24.627 123.657,24.201 123.379,23.857 C123.079,23.487 122.628,23.49 122.204,23.591 C121.309,23.805 120.594,24.343 119.917,24.933 C118.117,26.503 116.651,28.362 115.401,30.379 C113.701,33.121 112.062,35.9 110.418,38.675 C110.199,39.044 110.019,39.175 109.549,39.126 C108.748,39.044 107.929,39.127 107.117,39.147 C106.981,39.151 106.845,39.187 106.65,39.217 C106.713,39.053 106.744,38.937 106.8,38.836 C109.011,34.815 111.18,30.769 113.452,26.783 C115.732,22.782 118.116,18.84 120.454,14.872 C121.488,13.116 122.527,11.363 123.546,9.599 C123.716,9.304 123.89,9.235 124.224,9.288 C125.38,9.469 126.53,9.383 127.809,9.019 Z M65.079,24.751 C62.296,27.128 60.224,30.05 58.723,33.373 C58.212,34.505 57.924,35.716 57.986,36.977 C58.033,37.957 58.598,38.5 59.574,38.525 C60.394,38.546 61.144,38.308 61.856,37.912 C63.626,36.924 64.894,35.419 66.073,33.826 C66.153,33.717 66.122,33.438 66.036,33.307 C65.626,32.68 65.411,32.021 65.523,31.264 C65.748,29.741 66.539,28.552 67.71,27.61 C68.23,27.191 68.837,26.987 69.538,27.402 C69.846,26.492 69.965,25.608 69.721,24.708 C69.511,23.93 68.988,23.564 68.179,23.505 C66.938,23.415 65.956,24.003 65.079,24.751 Z M102.941,24.148 C101.627,25.763 100.311,27.376 99.008,29.001 C98.952,29.071 98.98,29.263 99.036,29.36 C99.555,30.266 99.398,31.258 98.538,31.845 C98.0593548,32.1669496 97.5328703,32.4112924 96.978,32.569 C95.941,32.865 95.006,33.269 94.383,34.208 C93.823,35.052 93.647,35.95 94.092,36.875 C94.534,37.795 95.317,38.265 96.343,38.33 C97.3073399,38.3985753 98.2638214,38.1150418 99.035,37.532 C101.105,35.999 102.518,33.985 102.943,31.439 C103.172,30.066 103.043,28.632 103.061,27.225 C103.074,26.213 103.063,25.201 103.063,24.189 L103.064,24.189 L102.941,24.148 Z M141.93,23.504 C141.073,23.494 140.36,23.89 139.668,24.328 C138.049,25.353 136.708,26.694 135.448,28.117 C134.788,28.864 134.18,29.657 133.548,30.43 L133.637,30.558 C133.932,30.473 134.23,30.396 134.523,30.302 C137.095,29.476 139.518,28.372 141.525,26.505 C142.145,25.928 142.644,25.269 142.735,24.392 C142.798,23.79 142.532,23.512 141.93,23.504 Z M152.342715,9 L152.342,12.173 L154.586839,9.92947789 L155.070351,10.4129897 L152.825,12.657 L156.000855,12.6574555 L156.000855,13.3420316 L152.826,13.342 L155.070625,15.5866342 L154.587113,16.070146 L152.342,13.825 L152.342715,17.000171 L151.658823,17.000171 L151.658,13.825 L149.413879,16.070146 L148.930367,15.5866342 L151.174,13.342 L148,13.3420316 L148,12.6574555 L151.175,12.657 L148.930641,10.4129897 L149.414152,9.92947789 L151.658,12.173 L151.658823,9 L152.342715,9 Z M161.171404,6 L161.171,7.586 L162.29349,6.46474889 L162.535251,6.70650995 L161.413,7.828 L163.000513,7.82876686 L163.000513,8.17106223 L161.413,8.171 L162.535388,9.29338753 L162.293627,9.5351486 L161.171,8.413 L161.171404,10.000171 L160.829451,10.000171 L160.829,8.412 L159.706954,9.5351486 L159.465193,9.29338753 L160.587,8.171 L159,8.17106223 L159,7.82876686 L160.587,7.828 L159.46533,6.70650995 L159.707091,6.46474889 L160.829,7.586 L160.829451,6 L161.171404,6 Z M155.999726,3 C156.552451,3 157,3.44809641 157,4.0002739 C157,4.55245138 156.552451,5 155.999726,5 C155.448096,5 155,4.55245138 155,4.0002739 C155,3.44809641 155.448096,3 155.999726,3 Z"/>
</svg>
