<?xml version="1.0" encoding="utf-8"?>
<svg width="162px" height="40px" viewBox="0 0 162 40" version="1.1" xmlns:xlink="http://www.w3.org/1999/xlink" xmlns="http://www.w3.org/2000/svg">
  <desc>Created with Lunacy</desc>
  <g id="logo-new-2">
    <path d="M69.6538 0C70.2638 0.654 70.1458 1.138 69.2818 1.326C65.5678 2.13 62.4318 4.033 59.5658 6.435C56.1758 9.278 53.2428 12.555 50.5428 16.052C47.1508 20.442 43.7858 24.855 40.3028 29.172C38.0868 31.919 35.6248 34.458 32.7468 36.544C31.2048 37.661 29.5468 38.572 27.7268 39.164L27.7239 39.165C27.5926 39.2077 27.4478 39.2549 27.3168 39.239C27.1808 39.222 26.9598 39.145 26.9458 39.065C26.9228 38.935 26.9968 38.72 27.1028 38.645C30.0448 36.59 31.7768 33.666 32.9608 30.383C34.5268 26.0208 36.0612 21.6474 37.5638 17.263C38.8678 13.476 40.3248 9.76 42.4828 6.363C43.1358 5.334 43.8818 4.363 44.6728 3.243C44.3688 3.519 44.1538 3.694 43.9608 3.892C41.9758 5.917 40.2808 8.18 38.8408 10.607C36.8748 13.921 35.0208 17.302 33.1558 20.674C31.5538 23.57 29.9558 26.469 27.9258 29.09C24.6098 33.375 20.5278 36.698 15.4158 38.626C12.4278 39.752 9.3318 40.112 6.1698 39.514C4.2518 39.151 2.5168 38.391 1.1878 36.893C-0.206197 35.32 -0.399197 32.863 0.746803 31.273C1.5008 30.227 2.5368 29.844 3.7938 30.068C4.5568 30.203 5.0058 30.728 5.1258 31.566C5.3398 33.054 4.3188 34.38 2.9488 34.394C2.0478 34.402 1.5138 33.916 1.4318 33.017C1.4138 32.82 1.3768 32.625 1.3478 32.43L1.1978 32.409C1.1418 32.645 1.0578 32.879 1.0328 33.119C0.837803 35.03 1.6828 36.41 3.2518 37.413C4.7878 38.396 6.4978 38.773 8.2918 38.87C11.7528 39.057 14.8748 38.056 17.7748 36.227C20.8648 34.279 23.3618 31.695 25.7048 28.936C28.1898 26.006 30.1708 22.736 32.1728 19.478C34.0608 16.407 35.8878 13.296 37.8528 10.275C39.8228 7.245 42.0828 4.433 44.8828 2.11C45.3678 1.709 45.9728 1.444 46.5488 1.17C46.6544 1.11925 46.8047 1.1621 46.9552 1.20501C47.0241 1.22466 47.0931 1.24432 47.1578 1.255C47.1108 1.454 47.1258 1.702 47.0098 1.843C45.2418 3.993 44.2068 6.514 43.3978 9.126C42.2158 12.942 41.1618 16.798 39.9828 20.616C39.0498 23.638 37.9568 26.606 36.5418 29.446C35.1538 32.23 33.3538 34.688 30.9408 36.675C30.8417 36.7474 30.7766 36.8573 30.7608 36.979C30.8968 36.899 31.0368 36.827 31.1668 36.741C34.0238 34.841 36.5388 32.559 38.6178 29.833C42.0778 25.297 45.4818 20.719 48.9128 16.161C51.1858 13.141 53.4738 10.131 56.1978 7.494C59.0778 4.704 62.2528 2.329 66.0438 0.897C66.8618 0.588 67.7248 0.402 68.5658 0.157C68.7118 0.114 68.8528 0.053 68.9958 0L69.6538 0ZM69.8698 33.202C69.0238 33.579 68.1688 33.824 67.2178 33.373C67.3428 33.187 67.4568 33.04 67.5478 32.88C68.3048 31.549 69.1358 30.252 69.7908 28.871C70.4188 27.547 70.7458 26.113 70.4658 24.621C70.2948 23.715 69.7818 23.091 68.8588 22.855C68.0108 22.638 67.1748 22.748 66.3508 22.965C64.7708 23.382 63.3638 24.169 62.0138 25.064C60.0828 26.344 58.2868 27.78 56.9168 29.678C55.3648 31.83 53.7118 33.895 51.8168 35.758C50.7568 36.799 49.5868 37.676 48.1768 38.203C45.9808 39.024 43.7098 39.116 41.4078 38.918C41.0158 38.884 40.6258 38.829 40.2358 38.784L40.2268 38.66C40.3588 38.593 40.4858 38.517 40.6218 38.46C44.5718 36.811 47.6528 34.114 50.1148 30.651C52.5478 27.228 54.4928 23.528 56.3108 19.758C58.0338 16.186 59.6868 12.579 61.9008 9.271C63.5758 6.768 65.5808 4.597 68.2318 3.09C68.5308 2.92 68.8378 2.76 69.1218 2.567C69.1532 2.54534 69.1882 2.52374 69.2243 2.50152C69.4212 2.38009 69.6476 2.24043 69.4718 1.975C69.3898 1.851 69.0088 1.82 68.8198 1.893C68.2926 2.09027 67.7845 2.33529 67.3018 2.625C63.3478 5.051 60.0468 8.18 57.3818 11.97C54.6718 15.823 52.4418 19.966 50.1688 24.082C48.6538 26.823 47.1678 29.582 45.5738 32.276C44.2088 34.583 42.4598 36.56 40.0288 37.829C39.1218 38.302 38.2288 38.725 37.1318 38.467C36.4388 38.305 35.7008 38.296 34.9808 38.295C34.4238 38.294 33.8598 38.379 33.3108 38.489C32.9808 38.556 32.6328 38.798 32.7358 39.166C32.8028 39.406 33.1378 39.579 33.3728 39.756C33.4478 39.813 33.5858 39.806 33.6928 39.8C34.7538 39.735 35.8158 39.687 36.8728 39.59C37.1083 39.5681 37.346 39.5091 37.5822 39.4505C37.9488 39.3596 38.3118 39.2695 38.6578 39.32C40.6358 39.611 42.6098 39.798 44.6078 39.676C46.9638 39.533 49.1238 38.848 51.0118 37.386C52.5108 36.227 53.7668 34.83 54.9858 33.394C55.0978 33.261 55.1828 33.104 55.2808 32.958L55.4138 33.076C55.2238 34.346 55.3048 35.583 55.9118 36.736C56.7878 38.399 58.3038 39.464 60.3768 39.133C61.3308 38.981 62.1508 38.524 62.9238 37.983C64.3548 36.982 65.4648 35.663 66.4948 34.273C66.6818 34.02 66.8438 33.976 67.1588 34.03C67.7368 34.128 68.3428 34.21 68.9168 34.14C70.1748 33.984 71.1798 33.274 72.1268 32.478C73.5078 31.318 74.5428 29.853 75.6858 28.48C76.9109 27.0136 78.1577 25.5654 79.4258 24.136C79.6648 23.865 80.0138 23.662 80.3498 23.512C80.7328 23.341 81.0538 23.558 81.0648 23.978C81.0728 24.301 81.0548 24.655 80.9278 24.943C80.4518 26.031 80.0078 27.147 79.4018 28.163C77.6768 31.055 75.8778 33.903 74.1068 36.768C73.6648 37.481 73.2148 38.191 72.7168 38.981C73.0008 38.964 73.1828 38.943 73.3658 38.941C73.6041 38.9394 73.8424 38.9357 74.0808 38.932C74.75 38.9216 75.4193 38.9111 76.0858 38.948C76.5068 38.971 76.7268 38.876 76.9348 38.502C78.7728 35.201 80.7128 31.961 82.9778 28.931C84.1808 27.322 85.4448 25.763 87.0368 24.509C87.6698 24.01 88.3578 23.599 89.1698 23.474C90.2268 23.313 90.7868 23.975 90.4028 24.973C90.1628 25.598 89.8668 26.214 89.5078 26.778C88.4218 28.482 87.2848 30.154 86.1838 31.848C85.3578 33.121 84.7958 34.474 84.9408 36.046C85.1478 38.293 87.4338 40.222 89.7838 38.596C90.7798 37.907 91.6368 37.016 92.5548 36.216C92.6858 36.102 92.8098 35.98 92.9528 35.846C93.0178 35.953 93.0548 35.989 93.0628 36.03C93.4108 37.832 94.9598 39.029 96.7638 39.16C99.4498 39.355 101.859 38.639 103.906 36.869C105.546 35.452 106.346 33.678 105.786 31.502C105.502 30.402 105.044 29.346 104.651 28.276C104.212 27.084 103.771 25.895 103.689 24.61C103.628 23.648 103.833 22.85 104.623 22.15C105.459 21.408 106.149 20.496 106.863 19.626C107.105 19.331 107.278 18.954 107.388 18.586C107.559 18.013 107.226 17.612 106.652 17.744C106.231 17.84 105.783 18.056 105.472 18.35C104.382 19.378 103.788 20.706 103.362 22.119C103.286 22.37 103.208 22.645 103.049 22.842C101.526 24.7358 99.992 26.6205 98.4468 28.496C98.3558 28.607 98.1548 28.701 98.0168 28.687C97.1618 28.598 96.4388 28.893 95.8068 29.423C94.2058 30.766 93.2098 32.452 92.9668 34.553C92.9488 34.715 92.9038 34.904 92.8038 35.024C91.8698 36.149 90.8808 37.229 89.6338 38.009C89.2288 38.262 88.7118 38.414 88.2338 38.454C87.6528 38.503 87.3508 38.133 87.3548 37.539C87.3513 37.304 87.3977 37.0708 87.4908 36.855C87.8728 36.05 88.2428 35.235 88.6958 34.47C89.6438 32.867 90.6668 31.307 91.6088 29.699C92.1488 28.779 92.5548 27.782 92.6348 26.699C92.7318 25.37 92.3108 24.219 91.2808 23.346C90.3098 22.522 88.7558 22.488 87.5618 23.376C86.5868 24.1 85.6938 24.945 84.8358 25.808C84.1238 26.524 83.5168 27.343 82.8638 28.117C82.8578 27.86 82.9318 27.632 83.0058 27.404C83.3428 26.358 83.4148 25.324 82.9298 24.291C82.1788 22.689 80.8158 22.314 79.4558 23.422C78.7558 23.992 78.1178 24.657 77.5258 25.342C76.0698 27.025 74.6698 28.757 73.2198 30.447C72.2688 31.558 71.2388 32.59 69.8698 33.202ZM119.785 24.052C118.732 25.007 117.726 26.016 116.702 27.004L116.654 27.003L127.809 8.925C126.53 9.289 125.38 9.375 124.224 9.194C123.89 9.141 123.716 9.21 123.546 9.505C122.527 11.269 121.488 13.022 120.454 14.778C118.116 18.746 115.732 22.688 113.452 26.689C111.18 30.675 109.011 34.721 106.8 38.742C106.744 38.843 106.713 38.959 106.65 39.123C106.845 39.093 106.981 39.057 107.117 39.053C107.341 39.0475 107.566 39.0371 107.791 39.0268C108.38 38.9997 108.969 38.9727 109.549 39.032C110.019 39.081 110.199 38.95 110.418 38.581C112.062 35.806 113.701 33.027 115.401 30.285C116.651 28.268 118.117 26.409 119.917 24.839C120.594 24.249 121.309 23.711 122.204 23.497C122.628 23.396 123.079 23.393 123.379 23.763C123.657 24.107 123.647 24.533 123.441 24.919C122.965 25.816 122.496 26.72 121.971 27.59C120.96 29.265 119.869 30.893 118.896 32.589C118.198 33.805 117.832 35.135 118.136 36.565C118.59 38.701 120.863 39.922 122.803 38.72C123.109 38.53 123.417 38.34 123.699 38.118C125.325 36.836 126.643 35.263 127.913 33.644C128.091 33.418 128.273 33.195 128.453 32.97L128.571 33.011C128.571 33.1865 128.568 33.3622 128.564 33.5381C128.557 33.9173 128.551 34.2968 128.576 34.674C128.716 36.6878 130.085 38.4061 132.016 38.994C133.274 39.375 134.496 39.193 135.69 38.725C137.259 38.108 138.578 37.108 139.822 35.991C142.135 33.914 143.962 31.423 145.866 28.991C147.091 27.426 148.401 25.925 149.71 24.428C150.031 24.061 150.47 23.772 150.904 23.536C151.319 23.311 151.648 23.557 151.662 24.031C151.667 24.185 151.657 24.355 151.597 24.492C151.08 25.664 150.65 26.887 150.006 27.984C147.932 31.507 145.778 34.983 143.656 38.477C143.57 38.619 143.49 38.765 143.366 38.983C143.654 38.965 143.854 38.943 144.054 38.943C144.257 38.9423 144.46 38.9409 144.663 38.9395C145.368 38.9345 146.073 38.9296 146.776 38.956C147.103 38.968 147.292 38.89 147.452 38.604C147.952 37.716 148.469 36.838 148.994 35.965C150.19 33.974 151.435 32.018 153.146 30.412C153.273 30.294 153.408 30.186 153.636 29.991C153.604 30.287 153.573 30.439 153.573 30.591C153.573 30.7533 153.569 30.916 153.565 31.0787C153.556 31.4956 153.546 31.9125 153.6 32.321C153.731 33.319 154.365 33.918 155.356 34.061C156.484 34.224 157.497 33.861 158.331 33.161C159.277 32.37 160.123 31.461 160.997 30.587C161.238 30.346 161.452 30.065 161.628 29.771C161.683 29.6809 161.678 29.5539 161.673 29.4269C161.671 29.3705 161.669 29.3142 161.672 29.261C161.49 29.291 161.26 29.261 161.135 29.361C160.87 29.575 160.656 29.853 160.429 30.111C159.869 30.744 159.342 31.409 158.749 32.009C158.093 32.674 157.319 33.183 156.387 33.396C155.293 33.647 154.404 33.111 154.287 32.04C154.231 31.528 154.275 31.0027 154.318 30.4807C154.329 30.3461 154.34 30.2118 154.35 30.078C154.402 29.33 154.81 28.859 155.467 28.482C156.498 27.89 157.483 27.214 158.456 26.53C159.303 25.933 160.098 25.264 160.62 24.34C160.838 23.954 160.91 23.536 160.666 23.134C160.416 22.72 159.992 22.72 159.578 22.757C158.647 22.84 157.954 23.393 157.306 23.986C155.979 25.199 155.021 26.682 154.283 28.309C153.93 29.09 153.177 29.441 152.617 30.007C152.83 29.387 153.097 28.808 153.332 28.217C153.799 27.045 154.021 25.846 153.717 24.586C153.419 23.349 152.517 22.588 151.309 22.782C150.746 22.873 150.143 23.205 149.723 23.602C148.792 24.4873 147.917 25.429 147.103 26.422C144.888 29.103 142.886 31.962 140.44 34.452C139.262 35.651 138.032 36.79 136.532 37.588C135.506 38.134 134.43 38.491 133.25 38.424C131.773 38.338 131.047 37.585 131.08 36.108C131.092 35.597 131.136 35.051 131.329 34.589C131.754 33.568 132.271 32.582 132.784 31.6C132.867 31.441 133.113 31.321 133.306 31.273C134.096 31.077 134.898 30.928 135.689 30.737C137.761 30.238 139.826 29.707 141.727 28.705C142.776 28.153 143.749 27.498 144.303 26.387C145.191 24.609 144.206 22.858 142.22 22.769C141.548 22.7446 140.876 22.8156 140.224 22.98C137.883 23.559 135.792 24.697 133.796 26.012C132.255 27.028 130.827 28.2 129.849 29.786C128.643 31.743 127.25 33.551 125.763 35.29C124.847 36.36 123.912 37.44 122.647 38.12C122.256 38.331 121.762 38.422 121.312 38.436C120.835 38.45 120.567 38.134 120.552 37.656C120.543 37.352 120.553 37.007 120.685 36.747C121.194 35.743 121.736 34.754 122.304 33.783C123.259 32.149 124.308 30.567 125.197 28.899C125.912 27.556 126.098 26.102 125.425 24.64C124.623 22.901 122.908 22.272 121.198 23.132C120.698 23.383 120.197 23.679 119.785 24.052ZM69.5378 27.308C69.8458 26.398 69.9648 25.514 69.7208 24.614C69.5108 23.836 68.9878 23.47 68.1788 23.411C66.9378 23.321 65.9558 23.909 65.0788 24.657C62.2958 27.034 60.2238 29.956 58.7228 33.279C58.2118 34.411 57.9238 35.622 57.9858 36.883C58.0328 37.863 58.5978 38.406 59.5738 38.431C60.3938 38.452 61.1438 38.214 61.8558 37.818C63.6258 36.83 64.8938 35.325 66.0728 33.732C66.1528 33.623 66.1218 33.344 66.0358 33.213C65.6258 32.586 65.4108 31.927 65.5228 31.17C65.7478 29.647 66.5388 28.458 67.7098 27.516C68.2298 27.097 68.8368 26.893 69.5378 27.308ZM133.548 30.336L133.637 30.464C133.932 30.379 134.23 30.302 134.523 30.208C137.095 29.382 139.518 28.278 141.525 26.411C142.145 25.834 142.644 25.175 142.735 24.298C142.798 23.696 142.532 23.418 141.93 23.41C141.073 23.4 140.36 23.796 139.668 24.234C138.049 25.259 136.708 26.6 135.448 28.023C134.788 28.77 134.18 29.563 133.548 30.336ZM102.941 24.054L103.064 24.095L103.063 24.095C103.063 24.4131 103.064 24.7311 103.065 25.0492C103.067 25.7431 103.07 26.4371 103.061 27.131C103.056 27.5402 103.063 27.9518 103.07 28.3636L103.07 28.3642C103.088 29.3677 103.105 30.3717 102.943 31.345C102.518 33.891 101.105 35.905 99.0348 37.438C98.2636 38.021 97.3071 38.3046 96.3428 38.236C95.3168 38.171 94.5338 37.701 94.0918 36.781C93.6468 35.856 93.8228 34.958 94.3828 34.114C95.0058 33.175 95.9408 32.771 96.9778 32.475C97.5327 32.3173 98.0592 32.073 98.5378 31.751C99.3978 31.164 99.5548 30.172 99.0358 29.266C98.9798 29.169 98.9518 28.977 99.0078 28.907C100.311 27.282 101.627 25.669 102.941 24.054Z" id="Shape" fill="#394791" fill-rule="evenodd" stroke="none" />
  </g>
</svg>