<svg xmlns="http://www.w3.org/2000/svg" width="162" height="74" viewBox="0 0 162 74">
  <path fill="#394791" fill-rule="evenodd" d="M69.6543529,14.0941176 C70.2634824,14.7476706 70.1459294,15.2324706 69.2821176,15.4196706 C65.5679529,16.2244706 62.4312,18.1266824 59.5660706,20.5289412 C56.1752,23.3718588 53.2432471,26.6490353 50.5425412,30.1455059 C47.1512,34.5361882 43.7857412,38.9487059 40.3032,43.2661647 C38.0872941,46.0131765 35.6250824,48.5519059 32.7470588,50.6378353 C31.2053176,51.7552941 29.5473412,52.6656 27.7277647,53.2576 C27.5952471,53.3007059 27.4488941,53.3494588 27.3167529,53.3330824 C27.1809412,53.3161412 26.9595765,53.2388706 26.9458353,53.1587765 C26.9233412,53.0285176 26.9971294,52.8136471 27.1034824,52.7392941 C30.0452235,50.6842353 31.7769882,47.7602824 32.9612706,44.4769882 C34.5337882,40.1177412 36.0543529,35.7394824 37.5635294,31.3578353 C38.868,27.5704471 40.3250353,23.8543059 42.4825882,20.4571294 C43.1360471,19.4280471 43.8820235,18.4575059 44.6722353,17.3373176 C44.3690824,17.6126118 44.1544,17.7884235 43.9614588,17.9855059 C41.9760471,20.0112941 40.2810824,22.2736 38.8408941,24.7010824 C36.8749647,28.0148706 35.0207529,31.3957647 33.1555294,34.7683765 C31.5544,37.6636235 29.9560941,40.5627294 27.9268235,43.1840941 C24.6097412,47.4687059 20.5275765,50.792 15.4163294,52.7195294 C12.4284706,53.8462118 9.33162353,54.2060235 6.16992941,53.6079059 C4.25228235,53.2450824 2.51694118,52.4850824 1.18847059,50.9869176 C-0.206258824,49.4141176 -0.399294118,46.9571765 0.746682353,45.3669647 C1.50084706,44.3206588 2.53745882,43.9384471 3.79421176,44.1616 C4.55684706,44.2970353 5.00597647,44.8227765 5.12644706,45.6597647 C5.34047059,47.1480471 4.3192,48.4744471 2.94922353,48.4877176 C2.04804706,48.4964706 1.51411765,48.0095059 1.43185882,47.1109647 C1.41388235,46.9142588 1.37651765,46.7193412 1.34809412,46.5235765 C1.29811765,46.5166118 1.24814118,46.5096471 1.19807059,46.5026824 C1.14150588,46.7392 1.05727059,46.9728941 1.0328,47.2127059 C0.8376,49.1240471 1.68362353,50.504 3.25162353,51.5068235 C4.78818824,52.4895059 6.49783529,52.8675765 8.29294118,52.9642353 C11.7530824,53.1505882 14.8745882,52.1496471 17.7752,50.3208471 C20.8650824,48.3727059 23.3623059,45.7894588 25.7046118,43.0296471 C28.1903529,40.1008941 30.1714353,36.8300235 32.1734118,33.5719529 C34.0606588,30.5005176 35.8876706,27.3899294 37.8523765,24.3687529 C39.8224471,21.3392 42.0832471,18.5273412 44.8838118,16.2043294 C45.3678588,15.8029176 45.9737882,15.5379765 46.5489412,15.2639059 C46.7032941,15.1904 46.9521412,15.3154824 47.1576,15.3492706 C47.1112941,15.5476706 47.1257882,15.7959529 47.0098353,15.9369412 C45.2422118,18.0869647 44.2069176,20.6084706 43.3977882,23.2199529 C42.2155765,27.0361412 41.1618353,30.8920471 39.9832941,34.7094588 C39.0501176,37.7322353 37.9569412,40.7002353 36.5415059,43.5403294 C35.1541176,46.3240471 33.3535529,48.7820235 30.9405647,50.7685647 C30.8588706,50.8357647 30.7864941,50.9143529 30.7619294,51.0728471 C30.8970824,50.9937882 31.0367529,50.9212235 31.1668235,50.8346353 C34.0236706,48.9344941 36.5389647,46.6529882 38.6182118,43.9268706 C42.0776941,39.3908706 45.4820235,34.8128941 48.9130824,30.2552471 C51.1862118,27.2357647 53.4744,24.2244706 56.1976941,21.5876706 C59.0782588,18.7985882 62.2527529,16.4227765 66.0441882,14.9908706 C66.8615059,14.6821647 67.7251294,14.4962824 68.5662588,14.2502588 C68.7121412,14.2076235 68.8525647,14.1466353 68.9955294,14.0941176 L69.6543529,14.0941176 Z M103.06336,38.1889694 C103.022419,38.1752282 102.981666,38.1614871 102.940725,38.1476518 C101.627125,39.7630871 100.311172,41.3764518 99.0084894,43.00064 C98.9522071,43.0707576 98.9802541,43.2627576 99.0357835,43.3596988 C99.5547482,44.2663341 99.3975718,45.2583341 98.5380894,45.8451576 C98.0696659,46.1649694 97.52416,46.4123106 96.9779012,46.56864 C95.9411012,46.8652988 95.0055718,47.2688753 94.3830776,48.2077929 C93.8237365,49.0516518 93.6471718,49.9500047 94.0918776,50.8754635 C94.5339482,51.7956518 95.3171953,52.2652047 96.3430776,52.3295812 C97.3399718,52.3921694 98.2452894,52.1164988 99.0349365,51.53184 C101.105431,49.9988518 102.518419,47.9845459 102.942795,45.4387576 C103.171689,44.0656753 103.042654,42.6317929 103.060819,41.2252047 C103.073901,40.2132518 103.06336,39.2010165 103.06336,38.1889694 Z M69.5376188,41.4017694 C69.8455718,40.4913694 69.9654776,39.6080753 69.7211482,38.7077459 C69.5101365,37.9298635 68.9875012,37.5644988 68.1793129,37.5054871 C66.9377129,37.4148518 65.9559718,38.0031812 65.0798306,38.7512282 C62.2956424,41.1280753 60.2239247,44.0499576 58.7229365,47.3732518 C58.2115012,48.5054871 57.9243482,49.7155576 57.9857129,50.9772988 C58.0332424,51.9563106 58.5982306,52.4999341 59.5735718,52.5250635 C60.3934306,52.54624 61.1443012,52.3082165 61.8556424,51.9115106 C63.6251482,50.9244988 64.8936659,49.4189929 66.0728659,47.82624 C66.1536188,47.7171576 66.1219012,47.4379106 66.0364424,47.3072753 C65.6257129,46.6797929 65.41056,46.0208753 65.52256,45.2636988 C65.7475012,43.74144 66.5387482,42.5523576 67.7099482,41.6095812 C68.2294776,41.1913224 68.8371953,40.9868047 69.5376188,41.4017694 Z M67.2172424,47.4666165 C68.1692424,47.9181929 69.0241129,47.6731106 69.8699482,47.2955106 C71.2389835,46.6844988 72.2687247,45.6515576 73.2208188,44.5405929 C74.6692894,42.8505224 76.06976,41.1191341 77.52576,39.4356518 C78.1182306,38.7506635 78.7553129,38.0869459 79.4558306,37.5162165 C80.8166776,36.4076047 82.1793129,36.78304 82.9304659,38.3850165 C83.4147012,39.4180518 83.3427953,40.4519341 83.0055718,41.49824 C82.9320659,41.7260988 82.8579953,41.9536753 82.8643012,42.2109929 C83.5174776,41.4373459 84.1243482,40.6176753 84.8358776,39.9020047 C85.6935718,39.0391341 86.5874071,38.1936753 87.5615247,37.4696282 C88.75616,36.5815341 90.3098541,36.6162635 91.28096,37.4396988 C92.3105129,38.3127341 92.7324424,39.4635106 92.6348424,40.7928282 C92.5555012,41.8756518 92.1494776,42.8724518 91.6094306,43.7933929 C90.6668424,45.4005459 89.6440659,46.9605459 88.6956424,48.5643106 C88.2432188,49.3294871 87.87296,50.1444518 87.4907482,50.9487812 C87.3936188,51.1531106 87.3571012,51.4030871 87.3553129,51.6325459 C87.3506071,52.2265224 87.6525365,52.5968753 88.2337129,52.5480282 C88.7123953,52.5077459 89.2288188,52.3564047 89.6339012,52.10304 C90.8813365,51.3225224 91.8698541,50.2428047 92.8039718,49.1183812 C92.9041129,48.9979106 92.9486306,48.8094871 92.9674541,48.6465694 C93.2099953,46.5455812 94.2055718,44.8604988 95.8065129,43.5169694 C96.4388894,42.98624 97.1624659,42.6924988 98.0165835,42.7805929 C98.15456,42.7948047 98.3555953,42.7003106 98.4467953,42.5896282 C99.9907953,40.7133929 101.527172,38.8307576 103.048678,36.9363576 C103.207548,36.7385224 103.285948,36.4641694 103.361713,36.2132518 C103.788442,34.8001694 104.381948,33.4718871 105.471548,32.4444047 C105.78336,32.1502871 106.230889,31.9340047 106.651878,31.8376282 C107.226278,31.7061459 107.558701,32.1068988 107.387595,32.6804518 C107.277948,33.0478871 107.104584,33.4253929 106.863454,33.7192282 C106.148913,34.5898165 105.458748,35.5024753 104.622136,36.2442165 C103.833242,36.9436988 103.628254,37.7419106 103.689242,38.7040753 C103.770842,39.9892518 104.211972,41.1780518 104.65056,42.3698635 C105.044442,43.4402635 105.502325,44.4962635 105.785901,45.5962165 C106.346748,47.77184 105.545807,49.5451106 103.906089,50.9629929 C101.858936,52.7330635 99.4498071,53.4494871 96.7640659,53.2540047 C94.9601129,53.1226165 93.41056,51.9256282 93.0628894,50.1247812 C93.0548894,50.0829929 93.0176188,50.0468518 92.9526776,49.9404047 C92.8095247,50.0738635 92.6858541,50.1960282 92.5552188,50.3100047 C91.6365365,51.1103812 90.7799718,52.0010165 89.7840188,52.6900518 C87.4335247,54.3161224 85.1475012,52.3871812 84.9406306,50.1392753 C84.79616,48.5679812 85.3575718,47.2148518 86.1842071,45.9423812 C87.2851012,44.2475106 88.4221365,42.5758871 89.5077835,40.8715106 C89.8668424,40.3076518 90.1627482,39.6915576 90.4030306,39.0668988 C90.7867482,38.0693459 90.2272188,37.4067576 89.1704659,37.5683576 C88.3578541,37.6925929 87.6704188,38.1039812 87.0368188,38.6030871 C85.4453835,39.8568282 84.1809129,41.4155106 82.9780894,43.0248282 C80.7126776,46.0557929 78.7730071,49.2951341 76.9348894,52.5962165 C76.7269835,52.9695812 76.5067482,53.0650165 76.0861365,53.0418635 C75.1818541,52.9921694 74.2725835,53.0293459 73.3653835,53.0354635 C73.1829835,53.0365929 73.0008659,53.0575812 72.7174776,53.0759341 C73.2146071,52.2842165 73.6651482,51.5756988 74.1066541,50.8618165 C75.8784188,47.99744 77.6764424,45.1487812 79.4018071,42.2567341 C80.0077365,41.2408282 80.4512188,40.1250635 80.9283953,39.0371576 C81.0546071,38.7493459 81.0726776,38.3945224 81.0646776,38.0723576 C81.0540424,37.6523106 80.7331953,37.4354635 80.3498541,37.6063812 C80.0139482,37.7561224 79.6653365,37.95904 79.4258071,38.2298165 C78.1596424,39.6607812 76.9093835,41.1066165 75.6863247,42.5744753 C74.5431718,43.9466165 73.5084424,45.4123106 72.1272659,46.5724988 C71.1804424,47.3676047 70.1751718,48.0782871 68.9179482,48.2335812 C68.34336,48.30464 67.7366776,48.2221929 67.1592659,48.1236518 C66.8436894,48.0699106 66.6819953,48.1146165 66.4949835,48.3671341 C65.4653365,49.7568753 64.3547482,51.0755576 62.9237835,52.0770635 C62.1505129,52.61824 61.3312188,53.0747106 60.3765835,53.2271812 C58.3041129,53.5582871 56.7882541,52.49344 55.9121129,50.8300047 C55.3045835,49.6767812 55.2235482,48.4397929 55.4140424,47.1691106 C55.3697129,47.1300518 55.3253835,47.0908988 55.2811482,47.05184 C55.1832659,47.1977224 55.0984659,47.3548047 54.9856188,47.4879812 C53.76736,48.9241224 52.5108894,50.3205459 51.01216,51.4801694 C49.1235953,52.9416282 46.96416,53.6266165 44.6081129,53.7703341 C42.6101835,53.8921224 40.6355953,53.7054871 38.6580894,53.4144753 C38.0894306,53.3307106 37.4738071,53.62784 36.8734306,53.6833694 C35.8161129,53.7813459 34.7540894,53.82944 33.6936659,53.8930635 C33.5860894,53.8995576 33.4480188,53.9072753 33.3725365,53.8501459 C33.1379953,53.6729224 32.8020894,53.4993694 32.7355482,53.2604047 C32.6328659,52.8917459 32.9813835,52.6495812 33.3107012,52.5834165 C33.8595012,52.4732988 34.4239247,52.3881224 34.98176,52.3889694 C35.70016,52.3900047 36.4388894,52.3989459 37.13216,52.5614871 C38.2291953,52.8187106 39.1212424,52.3964047 40.0291012,51.9227106 C42.4604424,50.6540047 44.2086776,48.6765929 45.57376,46.3701459 C47.1682071,43.6759341 48.6545129,40.9171576 50.1688659,38.1759812 C52.4424659,34.0604988 54.6717365,29.9173459 57.3815718,26.0638871 C60.0465129,22.27424 63.34816,19.1451106 67.3016659,16.71904 C67.7790306,16.4261459 68.2966776,16.1875576 68.8196894,15.9866165 C69.0088659,15.9139576 69.3907012,15.9448282 69.4724894,16.0685929 C69.6800188,16.3827576 69.3254776,16.5207341 69.1210541,16.6605929 C68.8376659,16.8543812 68.53056,17.0141929 68.2311718,17.1844518 C65.5809129,18.6914635 63.5757365,20.8618165 61.9008188,23.3649694 C59.6874541,26.6730165 58.0336188,30.2802635 56.3116424,33.8517459 C54.4934776,37.6225694 52.5482541,41.3217694 50.1148424,44.7452988 C47.6533835,48.2082635 44.5720659,50.9054871 40.6223247,52.5536753 C40.4863247,52.6105224 40.3587953,52.6873224 40.2272188,52.7548047 C40.2301365,52.7957459 40.2330541,52.8366871 40.2358776,52.8776282 C40.62656,52.9231812 41.0164894,52.9788047 41.4082071,53.0124047 C43.7100424,53.2098635 45.9806306,53.1180988 48.1768659,52.2968282 C49.5863718,51.7696753 50.7564424,50.8932518 51.8165835,49.8517459 C53.7123953,47.9890635 55.3651953,45.9235576 56.9179482,43.7714635 C58.2867953,41.8743341 60.0826541,40.4376282 62.0144188,39.1579106 C63.3649129,38.2634165 64.7711247,37.4756518 66.35136,37.0592753 C67.1748894,36.84224 68.0115012,36.7319341 68.85856,36.9485929 C69.7823247,37.1849224 70.2951718,37.8093929 70.4657129,38.7148988 C70.7469365,40.2071341 70.4190306,41.6411106 69.7908894,42.9657224 C69.1363012,44.3460518 68.3054306,45.6428047 67.5478776,46.9740047 C67.4567718,47.1341929 67.3425129,47.2813929 67.2172424,47.4666165 Z M133.547925,44.4300141 C133.577478,44.4725553 133.607219,44.5150965 133.636772,44.5576376 C133.932207,44.4727435 134.230089,44.3956612 134.522607,44.3017318 C137.095031,43.4761318 139.517995,42.3718494 141.524584,40.5045553 C142.144254,39.9278024 142.643642,39.2689788 142.734936,38.39152 C142.797525,37.78992 142.532207,37.5120847 141.930136,37.5043671 C141.072913,37.4933553 140.359878,37.8895906 139.668019,38.3276141 C138.049195,39.3525553 136.708395,40.6935435 135.448725,42.1167906 C134.787736,42.8636141 134.179831,43.6574965 133.547925,44.4300141 Z M116.701807,41.0979671 C117.726372,40.1102965 118.731078,39.1006965 119.785478,38.1459671 C120.197431,37.7729788 120.697666,37.4769788 121.197619,37.2254965 C122.907172,36.3655435 124.622748,36.9946259 125.424536,38.7342965 C126.098136,40.1955671 125.911784,41.6495906 125.196678,42.9928376 C124.308395,44.6612612 123.259078,46.2432847 122.303689,47.8768847 C121.735501,48.8484612 121.194607,49.8374494 120.685242,50.8408376 C120.553195,51.1010729 120.543031,51.4461082 120.552348,51.74992 C120.566842,52.2278494 120.835172,52.5437082 121.312631,52.5294965 C121.762889,52.5159435 122.255689,52.4248376 122.647031,52.2142024 C123.911501,51.5336376 124.846278,50.4547671 125.762513,49.3839906 C127.250136,47.6454494 128.643454,45.8366965 129.848913,43.8804612 C130.826889,42.2935435 132.254748,41.1216847 133.796489,40.1058729 C135.792348,38.7907671 137.883078,37.6526965 140.223595,37.0744376 C140.868772,36.9150024 141.557995,36.8328376 142.220489,36.8626729 C144.205619,36.9518024 145.191313,38.7029553 144.303313,40.4814965 C143.74896,41.5920847 142.775972,42.2467671 141.726748,42.7994259 C139.825666,43.8009318 137.761195,44.3321318 135.689195,44.8314259 C134.897666,45.0222024 134.095689,45.1700612 133.305854,45.3665788 C133.112819,45.4145788 132.86736,45.5349553 132.784066,45.6942024 C132.270654,46.67632 131.754419,47.6615435 131.328631,48.6830024 C131.136066,49.1448376 131.091642,49.6912847 131.08016,50.2015906 C131.047125,51.6786729 131.772678,52.4329318 133.250607,52.5176376 C134.430842,52.5853082 135.505666,52.2273788 136.531736,51.6818729 C138.032913,50.8836612 139.26256,49.7450259 140.44016,48.5461553 C142.886278,46.0561788 144.887784,43.1969788 147.103407,40.5155671 C147.919972,39.5272376 148.791501,38.5744847 149.722701,37.6952376 C150.143031,37.2985318 150.745854,36.9670494 151.309336,36.8764141 C152.517148,36.6819671 153.418136,37.4425318 153.716866,38.67952 C154.021148,39.9398494 153.79856,41.1388141 153.332489,42.3109553 C153.097384,42.9024847 152.830089,43.48112 152.617478,44.1004141 C153.17616,43.5353318 153.929666,43.18352 154.283172,42.4034729 C155.020678,40.7762729 155.979172,39.2930729 157.305572,38.0798965 C157.954136,37.4866729 158.647313,36.93392 159.578231,36.8510024 C159.991972,36.8142024 160.415689,36.8138259 160.666325,37.2277553 C160.909807,37.62992 160.838466,38.0476141 160.620019,38.4344376 C160.098231,39.3582024 159.302842,40.02672 158.455784,40.6231435 C157.482984,41.3081318 156.497854,41.9840847 155.46736,42.5756141 C154.809666,42.9532141 154.401666,43.4241788 154.349807,44.1717553 C154.304348,44.8253082 154.216913,45.4897788 154.287219,46.1342965 C154.404207,47.2049788 155.292584,47.7411671 156.387925,47.4900612 C157.319219,47.2765082 158.092678,46.7677082 158.749148,46.1034259 C159.342184,45.5033318 159.869242,44.8381082 160.428678,44.2045082 C160.656348,43.9465318 160.870372,43.6685082 161.135125,43.4548612 C161.259642,43.3543435 161.489666,43.3845553 161.671784,43.3554729 C161.661054,43.5278965 161.706795,43.7342024 161.628019,43.8657788 C161.452113,44.1589553 161.238748,44.43952 160.996772,44.6813082 C160.122701,45.5546259 159.276113,46.4640847 158.331454,47.2553318 C157.496913,47.9543435 156.483642,48.3184847 155.356301,48.1553788 C154.364584,48.0119435 153.731266,47.4128847 153.599784,46.4142024 C153.525054,45.8466729 153.572678,45.2625788 153.573336,44.68592 C153.573431,44.5332612 153.604019,44.3805082 153.636113,44.0845082 C153.408348,44.2800847 153.272631,44.3879435 153.146607,44.5061553 C151.434795,46.1120847 150.190184,48.0684141 148.993572,50.0593788 C148.46896,50.9322259 147.951972,51.8101553 147.452301,52.6975906 C147.291078,52.9838965 147.103313,53.0623906 146.775595,53.0500612 C145.869525,53.0161788 144.961384,53.0342494 144.054089,53.0368847 C143.853995,53.0375435 143.653901,53.0590965 143.365619,53.07632 C143.490419,52.8586259 143.569666,52.7129318 143.655784,52.5712847 C145.777948,49.0769788 147.932113,45.6014965 150.005054,42.0781082 C150.650419,40.9812612 151.080066,39.7570729 151.597054,38.5860612 C151.657572,38.4489318 151.666136,38.2787671 151.661807,38.1249788 C151.648254,37.6505318 151.319031,37.4047906 150.903784,37.6302965 C150.470278,37.8655906 150.031219,38.1550965 149.710278,38.5221553 C148.401195,40.0192847 147.091172,41.5197082 145.865854,43.0848847 C143.962042,45.5166965 142.134748,48.0082729 139.821619,50.0853553 C138.578419,51.2017788 137.259266,52.2018729 135.689572,52.8186259 C134.496254,53.2874259 133.274419,53.46992 132.015878,53.0876141 C130.093336,52.5038024 128.711501,50.7818259 128.576254,48.7686494 C128.539078,48.2162729 128.570513,47.6593788 128.570513,47.1045553 L128.453054,47.0638024 C128.273101,47.2886494 128.09136,47.5119906 127.913666,47.7384376 C126.643831,49.3567906 125.325431,50.9300612 123.69936,52.2115671 C123.417478,52.4337788 123.108772,52.6238965 122.802984,52.8135435 C120.863595,54.0162729 118.590466,52.7952847 118.135972,50.6590024 C117.831501,49.2282259 118.197525,47.8980612 118.895125,46.6831906 C119.868866,44.9873788 120.959784,43.3592376 121.970607,41.6841318 C122.495501,40.8142965 122.964772,39.9102965 123.441948,39.0126965 C123.646936,38.6270965 123.657384,38.2012141 123.378795,37.8574965 C123.078842,37.4873318 122.627548,37.4900612 122.204019,37.5910494 C121.309148,37.8046024 120.593384,38.3426729 119.916584,38.9328847 C118.116301,40.5028612 116.65136,42.3615906 115.400819,44.3793788 C113.701619,47.12112 112.062278,49.9001318 110.417854,52.6753788 C110.199407,53.0440376 110.019454,53.1742024 109.549336,53.1261082 C108.747548,53.0440376 107.928536,53.1272376 107.11696,53.1474729 C106.980678,53.1508612 106.845148,53.1869082 106.650231,53.2169318 C106.713478,53.0529788 106.743501,52.9373082 106.799407,52.8358494 C109.011172,48.8147671 111.179831,44.7692141 113.451831,40.7825788 C115.732019,36.7816376 118.116113,32.8399906 120.453713,28.8718024 C121.487878,27.1162259 122.52656,25.3631906 123.546042,23.5990494 C123.716301,23.3044612 123.889666,23.2349082 124.224066,23.28752 C125.379925,23.4694494 126.529666,23.3830494 127.809478,23.0192847 C124.040913,29.1261082 120.34736,35.11152 116.653807,41.0968376 C116.669807,41.0972141 116.685807,41.0975906 116.701807,41.0979671 Z"/>
</svg>
