<svg xmlns="http://www.w3.org/2000/svg" width="39" height="39" viewBox="0 0 39 39"><g fill="none" fill-rule="evenodd" transform="translate(-2 -2)"><rect width="30" height="30" x="6.627" y="6.627" stroke="#394791" stroke-width="2" rx="10" transform="rotate(-23 21.627 21.627)"/><path fill="#394791" fill-rule="nonzero" d="M19.616 23.249l1.755 1.915-1.516 1.68a.472.472 0 01-.35.156h-3.16a.466.466 0 01-.296-.828l3.567-2.923zm.31-3.567l8.026 6.49a.466.466 0 01-.297.827h-3.16a.471.471 0 01-.349-.154l-5.414-5.975 1.194-1.188zm4.15 0l1.193 1.188-.985 1.093-1.541-1.225 1.332-1.055zm-9.39-4.022c.886-.88 2.431-.88 3.315 0l1.989 1.98a.464.464 0 010 .659l-2.652 2.639a.47.47 0 01-.662 0l-1.99-1.98a2.323 2.323 0 010-3.298zm11.313 0c.884-.88 2.43-.88 3.314 0a2.323 2.323 0 010 3.298l-1.989 1.98a.47.47 0 01-.662 0l-2.683-2.64a.464.464 0 010-.659L26 15.66z"/></g></svg>