<svg xmlns="http://www.w3.org/2000/svg" width="811" height="200"><path fill="#9E9E9E" d="M201.991 146.204c-11.106 13.768-23.445 26.491-37.87 36.946-7.727 5.6-16.036 10.162-25.154 13.13-.665.215-1.399.46-2.06.378-.682-.085-1.791-.473-1.86-.874-.113-.653.257-1.73.79-2.102 14.744-10.3 23.422-24.954 29.358-41.41 7.881-21.847 15.502-43.79 23.066-65.75 6.537-18.982 13.84-37.606 24.652-54.632 3.276-5.157 7.014-10.022 10.975-15.636-1.52 1.38-2.595 2.262-3.563 3.249-9.95 10.153-18.444 21.49-25.662 33.657-9.854 16.608-19.146 33.552-28.494 50.455-8.025 14.51-16.035 29.04-26.206 42.178-16.624 21.474-37.083 38.13-62.7 47.79-14.974 5.646-30.495 7.45-46.34 4.452-9.612-1.818-18.309-5.627-24.967-13.136-6.989-7.882-7.957-20.196-2.214-28.166 3.78-5.244 8.975-7.16 15.274-6.041 3.822.679 6.073 3.314 6.677 7.509 1.072 7.458-4.046 14.106-10.912 14.173-4.517.043-7.193-2.397-7.605-6.9-.09-.986-.277-1.964-.42-2.945l-.751-.103c-.284 1.184-.706 2.356-.829 3.558-.978 9.579 3.262 16.495 11.12 21.52 7.701 4.926 16.27 6.82 25.267 7.305 17.34.934 32.985-4.083 47.523-13.248 15.485-9.764 28.001-22.71 39.74-36.542 12.458-14.678 22.387-31.072 32.42-47.4 9.46-15.393 18.615-30.984 28.462-46.125 9.874-15.183 21.204-29.276 35.24-40.918 2.427-2.012 5.462-3.34 8.345-4.713.774-.369 2.022.258 3.05.428-.23.994-.159 2.238-.74 2.945-8.858 10.776-14.047 23.413-18.102 36.5-5.925 19.127-11.207 38.452-17.113 57.583-4.677 15.15-10.156 30.025-17.25 44.259-6.953 13.952-15.977 26.27-28.07 36.227-.41.337-.772.73-.896 1.525.678-.397 1.378-.76 2.03-1.194 14.317-9.523 26.924-20.958 37.345-34.62 17.337-22.734 34.4-45.678 51.595-68.52 11.393-15.133 22.86-30.225 36.51-43.44C296.087 23.578 311.997 11.671 331 4.494c4.096-1.547 8.424-2.478 12.64-3.711.73-.215 1.435-.52 2.151-.783h3.302c3.053 3.276 2.464 5.705-1.866 6.643-18.614 4.034-34.335 13.567-48.695 25.607-16.993 14.248-31.688 30.672-45.223 48.196-16.997 22.005-33.864 44.12-51.318 65.758zm313.937 10.889c1.147-6.882.5-14.068.591-21.118.066-5.071.013-10.144.013-15.216l-.614-.208c-6.584 8.096-13.18 16.182-19.708 24.322-.282.352-.142 1.314.137 1.8 2.6 4.544 1.813 9.516-2.495 12.457-2.347 1.603-5.081 2.842-7.819 3.625-5.196 1.487-9.884 3.51-13.004 8.216-2.804 4.229-3.689 8.731-1.46 13.37 2.215 4.611 6.141 6.965 11.282 7.287 4.997.314 9.534-1.068 13.491-3.998 10.378-7.683 17.459-17.779 19.586-30.537zm-187.543-.877c1.128-7.63 5.093-13.59 10.963-18.315 2.604-2.095 5.65-3.12 9.16-1.041 1.543-4.562 2.144-8.99.92-13.501-1.058-3.899-3.677-5.73-7.727-6.026-6.223-.454-11.143 2.494-15.534 6.243-13.954 11.913-24.337 26.557-31.86 43.212-2.563 5.675-4.002 11.739-3.695 18.063.238 4.906 3.07 7.63 7.958 7.757 4.11.106 7.873-1.087 11.438-3.075 8.868-4.947 15.226-12.492 21.136-20.474.404-.547.245-1.947-.183-2.601-2.059-3.145-3.136-6.448-2.576-10.242zm196.102-14.504c1.974 5.365 4.269 10.657 5.69 16.17 2.81 10.904-1.203 19.791-9.422 26.897-10.26 8.872-22.333 12.462-35.793 11.482-9.041-.658-16.807-6.658-18.55-15.683-.04-.21-.227-.39-.553-.924-.717.67-1.336 1.281-1.992 1.852-4.604 4.012-8.896 8.476-13.888 11.928-11.78 8.15-23.237-1.517-24.274-12.783-.725-7.875 2.09-14.657 6.232-21.034 5.518-8.494 11.216-16.872 16.657-25.414 1.8-2.826 3.283-5.914 4.488-9.045 1.922-5-.882-8.32-6.178-7.51-4.073.623-7.518 2.684-10.694 5.186-7.976 6.283-14.313 14.095-20.341 22.16-11.353 15.191-21.075 31.426-30.287 47.97-1.042 1.872-2.146 2.35-4.254 2.234-4.532-.249-9.09-.063-13.636-.032-.914.006-1.827.11-3.247.203 2.492-3.968 4.749-7.519 6.962-11.097 8.88-14.355 17.891-28.633 26.538-43.127 3.038-5.092 5.26-10.683 7.652-16.136.632-1.442.722-3.22.682-4.835-.052-2.105-1.661-3.192-3.582-2.335-1.684.75-3.43 1.767-4.631 3.124-6.346 7.171-12.612 14.418-18.742 21.775-5.73 6.877-10.915 14.222-17.837 20.037-4.745 3.985-9.784 7.547-16.085 8.325-2.88.356-5.92-.058-8.814-.55-1.581-.27-2.392-.046-3.329 1.22-5.16 6.964-10.726 13.573-17.898 18.593-3.876 2.712-7.982 5-12.766 5.764-10.387 1.66-17.984-3.677-22.375-12.014-3.045-5.78-3.451-11.98-2.496-18.348l-.666-.588c-.49.732-.916 1.518-1.482 2.186-6.105 7.198-12.402 14.196-19.913 20.008-9.466 7.324-20.288 10.758-32.097 11.478-10.013.61-19.909-.325-29.82-1.784-2.85-.42-5.935 1.07-8.944 1.348-5.3.491-10.621.732-15.936 1.051-.54.033-1.232.071-1.61-.214-1.175-.89-2.859-1.758-3.192-2.957-.515-1.847 1.232-3.061 2.882-3.392 2.75-.552 5.58-.98 8.375-.975 3.6.005 7.303.05 10.778.865 5.498 1.289 9.968-.828 14.518-3.202 12.186-6.358 20.948-16.269 27.789-27.828 7.992-13.503 15.44-27.33 23.03-41.068 11.395-20.626 22.567-41.39 36.148-60.703 13.357-18.993 29.905-34.676 49.718-46.834 2.392-1.468 4.987-2.664 7.608-3.672.948-.363 2.862-.208 3.272.412 1.04 1.574-.737 2.266-1.761 2.966-1.421.972-2.96 1.772-4.46 2.626-13.283 7.553-23.332 18.43-31.727 30.976-11.093 16.579-19.382 34.657-28.012 52.557-9.112 18.899-18.86 37.438-31.057 54.597-12.336 17.355-27.779 30.873-47.574 39.133-.682.285-1.321.67-1.98 1.008l.043.616c1.958.228 3.912.507 5.875.676 11.537.989 22.916.53 33.923-3.587 7.065-2.642 12.93-7.034 18.242-12.254 9.502-9.335 17.785-19.688 25.567-30.473 6.86-9.509 15.86-16.71 25.543-23.122 6.768-4.484 13.815-8.431 21.736-10.519 4.127-1.087 8.32-1.64 12.565-.554 4.63 1.184 7.2 4.314 8.055 8.852 1.408 7.48-.234 14.666-3.382 21.305-3.28 6.918-7.445 13.417-11.242 20.088-.457.804-1.03 1.54-1.657 2.47 4.771 2.262 9.055 1.034 13.295-.858 6.86-3.063 12.022-8.24 16.793-13.807 7.26-8.47 14.28-17.148 21.576-25.585 2.97-3.434 6.162-6.76 9.673-9.62 6.82-5.557 13.65-3.675 17.414 4.354 2.428 5.177 2.067 10.359.377 15.603-.368 1.141-.74 2.282-.708 3.572 3.273-3.877 6.315-7.985 9.88-11.573 4.3-4.324 8.78-8.56 13.661-12.19 5.988-4.45 13.774-4.277 18.641-.15 5.16 4.376 7.275 10.143 6.786 16.806-.398 5.426-2.433 10.422-5.14 15.038-4.724 8.054-9.85 15.872-14.603 23.91-2.267 3.835-4.123 7.92-6.039 11.951-.486 1.024-.67 2.276-.678 3.427-.024 2.976 1.49 4.833 4.402 4.588 2.4-.202 4.987-.96 7.017-2.23 6.253-3.912 11.207-9.323 15.888-14.959.502-.604.725-1.548.82-2.364 1.216-10.53 6.205-18.975 14.228-25.709 3.17-2.66 6.796-4.132 11.076-3.69.692.071 1.7-.403 2.157-.957a3062.596 3062.596 0 0 0 23.063-28.333c.797-.992 1.19-2.367 1.57-3.624 2.139-7.083 5.113-13.74 10.573-18.889 1.564-1.474 3.807-2.558 5.916-3.042 2.879-.659 4.545 1.35 3.688 4.225-.55 1.842-1.42 3.733-2.628 5.206-3.58 4.363-7.04 8.937-11.232 12.655-3.954 3.505-4.982 7.506-4.676 12.328.409 6.441 2.62 12.4 4.818 18.372zm154.354-1.268c-3.312 3.743-6.36 7.721-9.526 11.593l.445.64c1.48-.425 2.973-.812 4.44-1.283 12.892-4.137 25.035-9.672 35.092-19.03 3.106-2.891 5.608-6.193 6.066-10.59.314-3.015-1.016-4.408-4.034-4.447-4.296-.055-7.87 1.93-11.337 4.126-8.113 5.137-14.833 11.857-21.146 18.991zm131.425 6.208c-.054.864.176 1.898-.22 2.558a21.269 21.269 0 0 1-3.164 4.087c-4.38 4.376-8.624 8.935-13.357 12.9-4.183 3.503-9.261 5.329-14.912 4.511-4.97-.72-8.144-3.721-8.803-8.727-.374-2.844-.136-5.771-.133-8.661.001-.766.154-1.53.315-3.015-1.142.98-1.822 1.522-2.453 2.114-8.58 8.048-14.817 17.853-20.814 27.831A540.065 540.065 0 0 0 739 193.472c-.808 1.435-1.749 1.829-3.392 1.767-4.54-.17-9.092-.079-13.639-.066-1.002.003-2.005.112-3.45.197.625-1.09 1.023-1.82 1.454-2.53 10.635-17.513 21.432-34.932 31.821-52.59 3.235-5.497 5.388-11.632 7.979-17.501.303-.688.346-1.54.324-2.311-.067-2.378-1.717-3.61-3.798-2.48-2.173 1.18-4.374 2.63-5.982 4.47-6.56 7.503-13.126 15.024-19.267 22.868-9.542 12.188-18.7 24.674-30.293 35.085-6.23 5.595-12.842 10.607-20.71 13.698-5.98 2.35-12.104 3.264-18.412 1.348-9.634-2.926-16.56-11.556-17.238-21.646-.186-2.768-.028-5.56-.028-8.34l-.589-.203c-.902 1.126-1.813 2.245-2.704 3.38-6.364 8.11-12.971 15.996-21.12 22.419-1.413 1.113-2.96 2.066-4.493 3.016-9.72 6.029-21.112-.09-23.39-10.797-1.526-7.171.309-13.838 3.805-19.926 4.88-8.5 10.347-16.66 15.414-25.055 2.63-4.359 4.981-8.89 7.374-13.388 1.026-1.933 1.079-4.067-.317-5.79-1.504-1.855-3.766-1.842-5.888-1.335-4.485 1.07-8.072 3.766-11.463 6.725-9.023 7.868-16.366 17.184-22.633 27.297-8.516 13.74-16.732 27.668-24.973 41.577-1.095 1.848-1.998 2.5-4.353 2.26-4.019-.412-8.123.005-12.19.106-.684.017-1.363.198-2.34.348.317-.822.467-1.401.748-1.91 11.085-20.152 21.953-40.428 33.34-60.408 11.428-20.052 23.377-39.806 35.092-59.694 5.183-8.799 10.389-17.585 15.498-26.427.854-1.476 1.722-1.824 3.398-1.56 5.793.911 11.555.478 17.97-1.345l-55.91 90.601.24.005c5.135-4.95 10.171-10.01 15.455-14.794 2.064-1.87 4.572-3.353 7.078-4.614 8.567-4.31 17.165-1.157 21.184 7.563 3.375 7.323 2.441 14.61-1.143 21.343-4.451 8.361-9.71 16.29-14.498 24.477a284.768 284.768 0 0 0-8.111 14.855c-.663 1.304-.713 3.034-.667 4.556.073 2.395 1.417 3.979 3.81 3.907 2.257-.068 4.727-.525 6.688-1.58 6.338-3.41 11.023-8.818 15.614-14.184 7.456-8.714 14.438-17.779 20.481-27.583 4.902-7.954 12.057-13.827 19.784-18.918 10.002-6.59 20.481-12.295 32.21-15.192 3.235-.8 6.69-1.211 10.009-1.062 9.95.447 14.89 9.224 10.44 18.137-2.78 5.566-7.655 8.847-12.914 11.617-9.528 5.02-19.875 7.682-30.26 10.184-3.966.956-7.985 1.697-11.944 2.682-.967.24-2.198.844-2.615 1.642-2.574 4.922-5.16 9.86-7.294 14.98-.965 2.314-1.188 5.053-1.245 7.61-.166 7.403 3.47 11.183 10.878 11.608 5.915.339 11.3-1.455 16.444-4.19 7.523-4 13.686-9.706 19.588-15.714 12.259-12.48 22.29-26.81 33.395-40.249 4.092-4.952 8.46-9.728 13.127-14.134 2.106-1.989 5.128-3.65 7.952-4.104 6.054-.974 10.569 2.837 12.066 9.037 1.525 6.316.41 12.325-1.926 18.2-1.179 2.964-2.518 5.865-3.583 8.968 2.8-2.832 6.576-4.595 8.347-8.505 3.697-8.154 8.5-15.588 15.148-21.668 3.25-2.973 6.724-5.744 11.39-6.16 2.074-.184 4.196-.186 5.453 1.89 1.22 2.014.863 4.108-.232 6.047-2.615 4.629-6.602 7.98-10.846 10.969-4.876 3.433-9.814 6.82-14.978 9.785-3.296 1.892-5.34 4.253-5.601 8-.227 3.275-.666 6.606-.313 9.836.586 5.366 5.038 8.053 10.528 6.794 4.667-1.07 8.544-3.62 11.834-6.949 2.972-3.008 5.614-6.341 8.417-9.517 1.141-1.293 2.214-2.687 3.54-3.757.625-.504 1.778-.352 2.69-.498z" opacity=".119"/></svg>