<svg xmlns="http://www.w3.org/2000/svg" width="162" height="74" viewBox="0 0 162 74"><path fill="#394791" fill-rule="evenodd" d="M69.654 14.094c.61.654.492 1.138-.372 1.326-3.714.804-6.85 2.707-9.716 5.109-3.39 2.843-6.323 6.12-9.023 9.617-3.392 4.39-6.757 8.803-10.24 13.12-2.216 2.747-4.678 5.286-7.556 7.372-1.542 1.117-3.2 2.028-5.02 2.62-.132.043-.278.091-.41.075-.136-.017-.357-.094-.371-.174-.023-.13.051-.345.157-.42 2.942-2.055 4.674-4.979 5.858-8.262a959.02 959.02 0 004.603-13.12c1.304-3.787 2.761-7.503 4.919-10.9.653-1.029 1.399-2 2.19-3.12-.304.276-.519.451-.712.649-1.985 2.025-3.68 4.288-5.12 6.715-1.966 3.314-3.82 6.695-5.685 10.067-1.602 2.896-3.2 5.795-5.23 8.416-3.316 4.285-7.398 7.608-12.51 9.536-2.988 1.126-6.084 1.486-9.246.888-1.918-.363-3.653-1.123-4.982-2.621-1.394-1.573-1.587-4.03-.441-5.62.754-1.046 1.79-1.429 3.047-1.205.763.135 1.212.66 1.332 1.498.214 1.488-.807 2.814-2.177 2.828-.901.008-1.435-.478-1.517-1.377-.018-.197-.055-.392-.084-.587l-.15-.021c-.056.236-.14.47-.165.71-.195 1.911.65 3.291 2.219 4.294 1.536.983 3.246 1.36 5.04 1.457 3.461.187 6.583-.814 9.483-2.643 3.09-1.948 5.587-4.532 7.93-7.291 2.485-2.93 4.466-6.2 6.468-9.458 1.888-3.071 3.715-6.182 5.68-9.203 1.97-3.03 4.23-5.842 7.03-8.165.485-.401 1.09-.666 1.666-.94.154-.074.403.051.609.085-.047.199-.032.447-.148.588-1.768 2.15-2.803 4.671-3.612 7.283-1.182 3.816-2.236 7.672-3.415 11.49-.933 3.022-2.026 5.99-3.441 8.83-1.388 2.784-3.188 5.242-5.601 7.229a.448.448 0 00-.18.304c.136-.08.276-.152.406-.238 2.857-1.9 5.372-4.182 7.451-6.908 3.46-4.536 6.864-9.114 10.295-13.672 2.273-3.02 4.561-6.03 7.285-8.667 2.88-2.79 6.055-5.165 9.846-6.597.818-.309 1.681-.495 2.522-.74.146-.043.287-.104.43-.157h.658zm33.41 24.095l-.123-.041c-1.314 1.615-2.63 3.228-3.933 4.853-.056.07-.028.262.028.359.519.906.362 1.898-.498 2.485a5.479 5.479 0 01-1.56.724c-1.037.296-1.972.7-2.595 1.639-.56.844-.736 1.742-.291 2.667.442.92 1.225 1.39 2.251 1.455a3.994 3.994 0 002.692-.798c2.07-1.533 3.483-3.547 3.908-6.093.229-1.373.1-2.807.118-4.214.013-1.012.002-2.024.002-3.036zm-33.526 3.213c.308-.91.427-1.794.183-2.694-.21-.778-.733-1.144-1.542-1.203-1.241-.09-2.223.498-3.1 1.246-2.783 2.377-4.855 5.299-6.356 8.622-.511 1.132-.799 2.343-.737 3.604.047.98.612 1.523 1.588 1.548.82.021 1.57-.217 2.282-.613 1.77-.988 3.038-2.493 4.217-4.086.08-.109.049-.388-.037-.519-.41-.627-.625-1.286-.513-2.043.225-1.523 1.016-2.712 2.187-3.654.52-.419 1.127-.623 1.828-.208zm-2.32 6.065c.951.451 1.806.206 2.652-.171 1.369-.612 2.399-1.644 3.35-2.755 1.45-1.69 2.85-3.422 4.306-5.105.592-.685 1.23-1.35 1.93-1.92 1.36-1.108 2.723-.733 3.474.869.485 1.033.413 2.067.076 3.113-.074.228-.148.456-.142.713.653-.774 1.26-1.593 1.972-2.309.858-.863 1.751-1.708 2.726-2.432 1.194-.888 2.748-.854 3.719-.03 1.03.873 1.451 2.024 1.354 3.353-.08 1.083-.486 2.08-1.026 3-.942 1.608-1.965 3.168-2.913 4.771-.453.765-.823 1.58-1.205 2.385a1.664 1.664 0 00-.136.684c-.004.594.298.964.879.915.478-.04.995-.192 1.4-.445 1.247-.78 2.236-1.86 3.17-2.985.1-.12.145-.309.163-.471.243-2.101 1.239-3.787 2.84-5.13.632-.53 1.355-.825 2.21-.736.138.014.339-.08.43-.191a612.625 612.625 0 004.602-5.654c.159-.197.237-.472.313-.723.426-1.413 1.02-2.741 2.11-3.769.311-.294.759-.51 1.18-.606.574-.132.907.269.736.842-.11.368-.283.745-.525 1.04-.714.87-1.404 1.782-2.24 2.524-.79.7-.995 1.498-.934 2.46.082 1.285.523 2.474.962 3.666.393 1.07.851 2.126 1.135 3.226.56 2.176-.24 3.95-1.88 5.367-2.047 1.77-4.456 2.486-7.142 2.291-1.804-.131-3.353-1.328-3.701-3.13-.008-.041-.045-.077-.11-.184-.143.134-.267.256-.398.37-.918.8-1.775 1.691-2.771 2.38-2.35 1.626-4.636-.303-4.843-2.55-.145-1.572.417-2.925 1.243-4.198 1.101-1.694 2.238-3.366 3.324-5.07.359-.564.655-1.18.895-1.805.384-.998-.176-1.66-1.233-1.499-.812.125-1.5.536-2.133 1.035-1.592 1.254-2.856 2.813-4.059 4.422-2.265 3.03-4.205 6.27-6.043 9.571-.208.374-.428.469-.849.446-.904-.05-1.813-.013-2.72-.007-.183.002-.365.023-.649.04.498-.79.948-1.5 1.39-2.213 1.771-2.865 3.57-5.713 5.295-8.605.606-1.016 1.05-2.132 1.526-3.22.127-.288.145-.642.137-.965-.011-.42-.332-.637-.715-.466-.336.15-.685.353-.924.624a193.058 193.058 0 00-3.74 4.344c-1.143 1.373-2.178 2.838-3.559 3.998-.947.796-1.952 1.506-3.21 1.662-.574.07-1.18-.012-1.758-.11-.315-.054-.477-.01-.664.243-1.03 1.39-2.14 2.709-3.571 3.71-.773.541-1.593.998-2.547 1.15-2.073.331-3.589-.734-4.465-2.397-.607-1.153-.688-2.39-.498-3.66l-.133-.118c-.098.146-.183.303-.295.436-1.219 1.436-2.475 2.833-3.974 3.992-1.888 1.462-4.048 2.147-6.404 2.29-1.998.122-3.972-.065-5.95-.356-.569-.083-1.184.214-1.785.27-1.057.097-2.119.145-3.18.21-.107.006-.245.013-.32-.044-.235-.177-.57-.35-.637-.59-.103-.368.245-.61.575-.677.549-.11 1.113-.195 1.67-.194.72.001 1.458.01 2.151.172 1.097.258 1.99-.165 2.897-.638 2.431-1.269 4.18-3.246 5.545-5.553 1.594-2.694 3.08-5.453 4.595-8.194 2.273-4.116 4.503-8.259 7.213-12.112 2.665-3.79 5.966-6.919 9.92-9.345a9.244 9.244 0 011.518-.732c.189-.073.57-.042.652.082.208.314-.147.452-.35.592-.284.193-.591.353-.89.523-2.651 1.507-4.656 3.678-6.331 6.181-2.214 3.308-3.867 6.915-5.59 10.487-1.818 3.77-3.763 7.47-6.196 10.893-2.462 3.463-5.543 6.16-9.493 7.809-.136.057-.263.133-.395.2l.009.124c.39.045.78.1 1.172.134 2.302.198 4.573.106 6.769-.715 1.41-.527 2.58-1.404 3.64-2.445 1.895-1.863 3.548-3.928 5.1-6.08 1.37-1.898 3.166-3.334 5.097-4.614 1.35-.895 2.757-1.682 4.337-2.099.824-.217 1.66-.327 2.508-.11.923.236 1.436.86 1.607 1.766.28 1.492-.047 2.926-.675 4.25-.655 1.381-1.486 2.678-2.243 4.009-.091.16-.205.307-.33.493zm66.33-3.037l.089.128c.295-.085.593-.162.886-.256 2.572-.826 4.995-1.93 7.002-3.797.62-.577 1.119-1.236 1.21-2.113.063-.602-.203-.88-.805-.888-.857-.01-1.57.386-2.262.824-1.619 1.025-2.96 2.366-4.22 3.789-.66.747-1.268 1.54-1.9 2.313zm-16.846-3.332c1.024-.988 2.03-1.997 3.083-2.952.412-.373.913-.669 1.413-.92 1.71-.86 3.425-.231 4.227 1.508.673 1.462.487 2.916-.228 4.259-.889 1.668-1.938 3.25-2.893 4.884-.568.971-1.11 1.96-1.619 2.964-.132.26-.142.605-.133.909.015.478.283.794.76.78.45-.014.944-.105 1.335-.316 1.265-.68 2.2-1.76 3.116-2.83 1.487-1.739 2.88-3.547 4.086-5.504.978-1.586 2.406-2.758 3.947-3.774 1.996-1.315 4.087-2.453 6.428-3.032a7.109 7.109 0 011.996-.211c1.986.089 2.971 1.84 2.083 3.618-.554 1.111-1.527 1.766-2.576 2.318-1.901 1.002-3.966 1.533-6.038 2.032-.791.191-1.593.34-2.383.536-.193.048-.439.168-.522.327-.513.982-1.03 1.968-1.455 2.989-.193.462-.237 1.008-.249 1.519-.033 1.477.693 2.23 2.17 2.316 1.18.067 2.256-.29 3.282-.836 1.5-.798 2.73-1.937 3.908-3.136 2.446-2.49 4.448-5.349 6.663-8.03a31.24 31.24 0 012.62-2.82c.42-.397 1.023-.729 1.586-.82 1.208-.194 2.11.567 2.408 1.804.304 1.26.082 2.459-.385 3.631-.235.591-.502 1.17-.715 1.79.56-.566 1.313-.917 1.666-1.698.738-1.627 1.696-3.11 3.023-4.323.648-.593 1.341-1.146 2.272-1.229.414-.037.838-.037 1.088.377.244.402.172.82-.046 1.206-.522.924-1.317 1.593-2.164 2.19-.973.684-1.958 1.36-2.989 1.952-.657.377-1.065.848-1.117 1.596-.046.653-.133 1.318-.063 1.962.117 1.071 1.006 1.607 2.1 1.356.932-.213 1.706-.722 2.362-1.387.593-.6 1.12-1.265 1.68-1.898.227-.258.441-.536.706-.75.125-.1.355-.07.537-.1-.01.173.035.38-.044.51-.176.294-.39.575-.631.816-.874.874-1.72 1.783-2.666 2.574-.834.7-1.847 1.063-2.975.9-.991-.143-1.625-.742-1.756-1.74-.075-.568-.027-1.152-.027-1.73 0-.152.031-.304.063-.6-.228.195-.363.303-.49.421-1.711 1.606-2.956 3.562-4.152 5.553-.525.873-1.042 1.751-1.542 2.639-.16.286-.349.364-.676.352-.906-.034-1.815-.016-2.722-.013-.2 0-.4.022-.688.04.124-.218.204-.364.29-.506 2.122-3.494 4.276-6.97 6.35-10.493.644-1.097 1.074-2.32 1.591-3.492.06-.137.07-.307.065-.461-.014-.474-.343-.72-.758-.495-.434.236-.873.525-1.194.892-1.309 1.497-2.619 2.998-3.844 4.563-1.904 2.432-3.731 4.923-6.044 7-1.244 1.117-2.563 2.117-4.132 2.734-1.194.468-2.416.65-3.674.269a4.87 4.87 0 01-3.44-4.32c-.037-.552-.005-1.109-.005-1.663l-.118-.041c-.18.225-.362.448-.54.674-1.27 1.619-2.588 3.192-4.214 4.474-.282.222-.59.412-.896.602-1.94 1.202-4.213-.019-4.667-2.155-.304-1.43.062-2.76.76-3.976.973-1.696 2.064-3.324 3.075-4.999.525-.87.994-1.774 1.47-2.671.206-.386.216-.812-.062-1.156-.3-.37-.751-.367-1.175-.266-.895.214-1.61.752-2.287 1.342-1.8 1.57-3.266 3.429-4.516 5.446-1.7 2.742-3.339 5.521-4.983 8.296-.219.369-.399.5-.869.451-.801-.082-1.62.001-2.432.021-.136.004-.272.04-.467.07.063-.164.094-.28.15-.381 2.211-4.021 4.38-8.067 6.652-12.053 2.28-4.001 4.664-7.943 7.002-11.911 1.034-1.756 2.073-3.509 3.092-5.273.17-.295.344-.364.678-.311 1.156.181 2.306.095 3.585-.269l-11.155 18.078.048.001z"/></svg>