<svg xmlns="http://www.w3.org/2000/svg" width="24" height="24" viewBox="0 0 24 24"><g fill="none" fill-rule="evenodd"><rect width="23" height="23" x=".5" y=".5" stroke="#394791" rx="11.5"/><path fill="#394791" d="M12 7l-1.176.618.225-1.309-.951-.927 1.314-.191L12 4l.588 1.191 1.314.191-.951.927.225 1.309zm5 1l-1.176.618.225-1.309-.951-.927 1.314-.191L17 5l.588 1.191 1.314.191-.951.927.225 1.309zM7 8l-1.176.618.225-1.309-.951-.927 1.314-.191L7 5l.588 1.191 1.314.191-.951.927.225 1.309z"/><path fill="#7F7F7F" fill-rule="nonzero" d="M8.921 16h-.993l-1.934-3.29V16H5v-5h.994l1.937 3.297V11h.99v5zm3.77-2.167h-1.908v1.34h2.239V16H9.789v-5h3.226v.834h-2.232v1.192h1.908v.807zm4.67.725L18.01 11H19l-1.07 5h-1l-.785-3.345L15.36 16h-1l-1.07-5h.99l.653 3.55.795-3.55h.841l.792 3.558z"/></g></svg>