<svg xmlns="http://www.w3.org/2000/svg" width="811" height="200" viewBox="0 0 811 200">
  <path fill="#9E9E9E" d="M201.991085,146.204292 C190.885425,159.971745 178.545802,172.69533 164.121745,183.149575 C156.394387,188.750047 148.085425,193.31184 138.966557,196.279292 C138.301934,196.49533 137.568443,196.740142 136.906179,196.657594 C136.225047,196.572689 135.115613,196.185425 135.046274,195.783538 C134.934481,195.131179 135.303821,194.054292 135.83684,193.681651 C150.580708,183.382123 159.259481,168.727877 165.19533,152.272689 C173.075991,130.425047 180.696745,108.482123 188.260896,86.522217 C194.79816,67.5401415 202.100991,48.9160849 212.913255,31.8901415 C216.189198,26.7325943 219.927406,21.8684434 223.888255,16.2542925 C222.368443,17.6340094 221.292972,18.5156132 220.325047,19.5028774 C210.375047,29.6557075 201.880708,40.9939151 194.662783,53.1599528 C184.809481,69.7679717 175.516557,86.7123113 166.168915,103.615142 C158.143915,118.125519 150.133538,132.655236 139.963255,145.792972 C123.339198,167.266557 102.879764,183.922217 77.2632547,193.582123 C62.2887264,199.229292 46.7679717,201.032594 30.922217,198.034953 C21.3113679,196.216557 12.6141981,192.407594 5.95617925,184.899104 C-1.0329717,177.016557 -2.00136792,164.702877 3.7425,156.733066 C7.52221698,151.489198 12.7170283,149.573632 19.0160849,150.692028 C22.837783,151.370802 25.0891981,154.005708 25.6925,158.200519 C26.7651415,165.659481 21.647217,172.307123 14.7807075,172.373632 C10.2641981,172.4175 7.58825472,169.976934 7.17599057,165.474104 C7.08636792,164.487783 6.89910377,163.510425 6.75665094,162.529292 C6.50570755,162.494858 6.25523585,162.459953 6.00476415,162.425519 C5.72080189,163.610425 5.29910377,164.781651 5.17599057,165.983538 C4.19816038,175.562783 8.43778302,182.478821 16.2962736,187.504764 C23.997217,192.429764 32.5660849,194.324575 41.562783,194.809009 C58.9038208,195.742972 74.5481604,190.726462 89.0858962,181.560896 C104.571274,171.797217 117.087311,158.850519 128.826462,145.018915 C141.284481,130.340613 151.213255,113.947217 161.246274,97.6189151 C170.705236,82.2255189 179.861368,66.6354245 189.708066,51.4943868 C199.582123,36.3108962 210.912311,22.2184434 224.948632,10.5764623 C227.374575,8.56419811 230.410425,7.23683962 233.293443,5.86278302 C234.067028,5.49438679 235.31467,6.12080189 236.343915,6.29108491 C236.112311,7.28495283 236.184481,8.52882075 235.603821,9.23589623 C226.744858,20.0118396 221.556179,32.6486321 217.500991,45.7368396 C211.575519,64.862783 206.294387,84.187783 200.388255,103.319387 C195.711368,118.469387 190.232123,133.344387 183.138255,147.577877 C176.184953,161.529764 167.160896,173.84816 155.0675,183.804764 C154.658066,184.141557 154.295802,184.535425 154.172217,185.329764 C154.850047,184.933066 155.549575,184.569858 156.201934,184.135896 C170.519387,174.612783 183.125991,163.178349 193.546745,149.515613 C210.884481,126.782123 227.946274,103.838255 245.142028,80.9962736 C256.534953,65.8632547 268.002406,50.7712736 281.651462,37.5561792 C296.087783,23.5778774 311.99816,11.6708019 330.999575,4.49438679 C335.096274,2.94721698 339.424104,2.01561321 343.640142,0.78259434 C344.370802,0.568443396 345.075047,0.263254717 345.791085,4.71698113e-05 L349.092972,4.71698113e-05 C352.145802,3.27551887 351.556651,5.70523585 347.227406,6.6434434 C328.612783,10.676934 312.892028,20.2104245 298.532123,32.2500472 C281.539198,46.4981604 266.843915,62.922217 253.308538,80.4462736 C236.312311,102.451462 219.44533,124.565613 201.991085,146.204292 Z M515.92783,157.092972 C517.075472,150.211368 516.428302,143.025047 516.51934,135.975047 C516.584906,130.903821 516.532075,125.830708 516.532075,120.758538 C516.32783,120.689198 516.12217,120.62033 515.917925,120.551462 C509.333962,128.647217 502.738679,136.733066 496.209906,144.87316 C495.928302,145.224575 496.068396,146.18684 496.346698,146.67316 C498.947642,151.217028 498.159906,156.188726 493.851887,159.129764 C491.505189,160.732594 488.770755,161.972217 486.033019,162.755236 C480.836792,164.242028 476.148585,166.265142 473.028774,170.970802 C470.225,175.199575 469.340094,179.702406 471.568868,184.340613 C473.784434,188.952406 477.710377,191.305708 482.851415,191.628349 C487.848113,191.941557 492.384906,190.560425 496.342453,187.629764 C506.719811,179.947217 513.800943,169.851462 515.92783,157.092972 Z M328.385377,156.215613 C329.512736,148.585896 333.478302,142.626934 339.347642,137.901462 C341.951887,135.805708 344.998113,134.780708 348.508019,136.859953 C350.051415,132.297689 350.652358,127.870802 349.428302,123.358538 C348.370283,119.459953 345.751415,117.628821 341.700943,117.333066 C335.478302,116.878821 330.558019,119.827406 326.166509,123.575991 C312.212736,135.488726 301.829717,150.132594 294.307075,166.788255 C291.743868,172.462783 290.305189,178.526934 290.612264,184.850991 C290.850472,189.757123 293.682547,192.481651 298.570283,192.608066 C302.679717,192.714198 306.442925,191.520802 310.007547,189.532594 C318.875943,184.586368 325.233962,177.041085 331.143868,169.058538 C331.548113,168.51184 331.389151,167.112311 330.960849,166.457594 C328.902358,163.313255 327.824528,160.010425 328.385377,156.215613 Z M524.486792,141.712311 C526.460849,147.076934 528.75566,152.368915 530.177358,157.882123 C532.987736,168.785896 528.973585,177.67316 520.755189,184.778821 C510.495755,193.650519 498.42217,197.241085 484.961792,196.261368 C475.920755,195.603349 468.154717,189.603349 466.412264,180.578349 C466.371698,180.368915 466.184906,180.187783 465.859434,179.654292 C465.141981,180.32316 464.522642,180.935425 463.867453,181.506179 C459.263208,185.517972 454.970755,189.982123 449.978774,193.434481 C438.198113,201.584009 426.741509,191.917028 425.705189,180.650519 C424.980189,172.775991 427.794811,165.994387 431.936792,159.617028 C437.454717,151.122689 443.153302,142.744858 448.59434,134.202877 C450.393868,131.376934 451.877358,128.289198 453.081604,125.158066 C455.004245,120.158538 452.2,116.838255 446.903774,117.647689 C442.831132,118.270802 439.385849,120.332123 436.210377,122.834009 C428.234434,129.117028 421.89717,136.929292 415.868868,144.994858 C404.515566,160.185425 394.793868,176.42033 385.581604,192.96467 C384.539623,194.835896 383.435849,195.313726 381.32783,195.19816 C376.795755,194.949104 372.238679,195.135425 367.691981,195.165613 C366.778302,195.172217 365.865094,195.276462 364.444811,195.368915 C366.936792,191.400519 369.193868,187.850047 371.407075,184.272217 C380.286792,169.916557 389.298113,155.639198 397.945283,141.144858 C400.982547,136.053349 403.204717,130.46184 405.596698,125.009009 C406.228774,123.567028 406.31934,121.788255 406.279245,120.173632 C406.226887,118.068915 404.617925,116.981651 402.696698,117.838726 C401.013208,118.589198 399.266509,119.605708 398.065566,120.962783 C391.720283,128.134481 385.454245,135.380708 379.324057,142.737783 C373.594811,149.61467 368.408962,156.960425 361.486792,162.774575 C356.741509,166.759953 351.703302,170.321745 345.402358,171.100047 C342.522642,171.455708 339.482547,171.0425 336.588208,170.549104 C335.006604,170.279764 334.196226,170.503821 333.258962,171.769387 C328.099057,178.734481 322.532547,185.343443 315.360849,190.362783 C311.485377,193.075047 307.379245,195.362311 302.594811,196.126934 C292.208019,197.78684 284.611321,192.449575 280.219811,184.112783 C277.175472,178.333066 276.768868,172.133538 277.723585,165.765142 C277.501415,165.568915 277.279717,165.37316 277.058019,165.177406 C276.567453,165.908538 276.141981,166.69533 275.576415,167.362783 C269.471226,174.560896 263.174057,181.559481 255.662736,187.371274 C246.19717,194.69533 235.375,198.128821 223.566038,198.848632 C213.55283,199.459009 203.657075,198.523632 193.746698,197.065142 C190.896698,196.645802 187.811321,198.134953 184.802358,198.413255 C179.50283,198.904292 174.18066,199.144858 168.866038,199.464198 C168.326415,199.496745 167.634434,199.535425 167.256132,199.249575 C166.08066,198.360425 164.39717,197.491557 164.063679,196.292972 C163.549057,194.445802 165.295755,193.231651 166.946226,192.900519 C169.696698,192.348632 172.525943,191.921274 175.321226,191.925519 C178.921698,191.930708 182.624057,191.975991 186.098585,192.790613 C191.596698,194.079764 196.067453,191.963255 200.617453,189.589198 C212.80283,183.230708 221.564623,173.32033 228.40566,161.760896 C236.397642,148.258066 243.846698,134.431651 251.435849,120.693443 C262.831132,100.067028 274.003302,79.3028774 287.584434,59.9901415 C300.941038,40.997217 317.488679,25.3141981 337.301887,13.1557075 C339.69434,11.687783 342.288679,10.4920283 344.910377,9.48448113 C345.858019,9.12080189 347.771698,9.27551887 348.181604,9.89580189 C349.221698,11.4703302 347.444811,12.1618396 346.420755,12.8623113 C345,13.8340094 343.460377,14.6344811 341.960377,15.487783 C328.67783,23.0410849 318.628774,33.9184434 310.234434,46.4637264 C299.141038,63.0429717 290.852358,81.1212736 282.22217,99.0208019 C273.110377,117.919858 263.361321,136.459009 251.165094,153.6175 C238.828774,170.97316 223.386321,184.491085 203.591038,192.751462 C202.908962,193.035896 202.269811,193.421274 201.610377,193.759009 C201.625,193.96467 201.639623,194.169858 201.653774,194.375047 C203.612264,194.602877 205.566038,194.882123 207.529245,195.050519 C219.065566,196.03967 230.445283,195.580236 241.452358,191.463726 C248.516509,188.822217 254.381132,184.429764 259.693868,179.209953 C269.195755,169.874575 277.478774,159.522217 285.260849,148.73684 C292.121226,139.228349 301.121698,132.027877 310.803774,125.61467 C317.571698,121.131179 324.61934,117.183538 332.539623,115.096274 C336.666509,114.009009 340.859434,113.456179 345.104717,114.542028 C349.734434,115.726462 352.304717,118.855708 353.159906,123.394387 C354.568396,130.87316 352.925943,138.059953 349.77783,144.699104 C346.49717,151.616557 342.333019,158.115613 338.536321,164.787311 C338.079245,165.590613 337.506132,166.327406 336.878774,167.256179 C341.65,169.518915 345.934434,168.290613 350.174057,166.398632 C357.034906,163.335896 362.195755,158.159481 366.967453,152.591557 C374.227358,144.121274 381.246226,135.443915 388.542925,127.006651 C391.512736,123.57316 394.705189,120.246745 398.216038,117.38684 C405.036321,111.830236 411.866038,113.71184 415.630189,121.741085 C418.057547,126.917972 417.696698,132.100047 416.006604,137.343915 C415.638679,138.485425 415.267453,139.625991 415.298585,140.916085 C418.57217,137.038726 421.614151,132.930708 425.179717,129.343443 C429.478774,125.018915 433.958491,120.782123 438.840094,117.153349 C444.82783,112.702406 452.614151,112.876462 457.481132,117.003349 C462.641038,121.378821 464.756132,127.146274 464.266981,133.808538 C463.868868,139.235425 461.833962,144.231179 459.127358,148.846745 C454.403302,156.901462 449.277358,164.719387 444.524057,172.757594 C442.256604,176.592028 440.400943,180.676934 438.485377,184.708066 C437.999057,185.732123 437.815566,186.984481 437.806604,188.134953 C437.783019,191.111368 439.296226,192.967972 442.208962,192.72316 C444.608491,192.521274 447.196226,191.762783 449.226415,190.492972 C455.478774,186.581179 460.433491,181.169858 465.114151,175.534481 C465.616038,174.930236 465.839151,173.985896 465.933962,173.169858 C467.149528,162.640142 472.138679,154.194858 480.162264,147.461368 C483.331604,144.800991 486.958019,143.329292 491.238208,143.770802 C491.930189,143.842028 492.938208,143.368443 493.394811,142.813726 C501.133491,133.410425 508.833019,123.975047 516.458491,114.480708 C517.255189,113.489198 517.647642,112.114198 518.027358,110.856651 C520.166509,103.774104 523.140566,97.1175 528.601415,91.9679717 C530.164623,90.4939151 532.407547,89.4099528 534.516981,88.9264623 C537.395755,88.2675 539.061792,90.276934 538.204717,93.1505189 C537.65566,94.9925 536.785849,96.8840094 535.576887,98.3566509 C531.996226,102.719858 528.537264,107.294387 524.344811,111.01184 C520.390566,114.5175 519.363208,118.517972 519.66934,123.33967 C520.07783,129.781179 522.288679,135.739198 524.486792,141.712311 Z M678.840566,140.443962 C675.528774,144.187358 672.481604,148.165189 669.314623,152.037358 C669.462736,152.250566 669.611792,152.463302 669.759906,152.676981 C671.240566,152.251509 672.733491,151.864717 674.199528,151.394434 C687.091981,147.256698 699.234906,141.721792 709.291981,132.363302 C712.397642,129.472736 714.9,126.171321 715.357547,121.773679 C715.671698,118.758585 714.341981,117.36566 711.324057,117.326981 C707.028302,117.271792 703.454717,119.257642 699.987264,121.452925 C691.874057,126.590189 685.154245,133.310472 678.840566,140.443962 Z M810.265566,146.651981 C810.211792,147.516132 810.441509,148.550094 810.045755,149.209528 C809.164623,150.678868 808.095283,152.085 806.882075,153.296792 C802.501887,157.673208 798.258491,162.231698 793.524528,166.197264 C789.341509,169.700094 784.263679,171.525566 778.613208,170.708113 C773.642453,169.988774 770.468868,166.986887 769.809906,161.981226 C769.435849,159.137358 769.674057,156.21 769.677358,153.319906 C769.678302,152.55434 769.831132,151.789245 769.992453,150.305283 C768.850472,151.285943 768.170283,151.826509 767.539151,152.418962 C758.959906,160.467075 752.72217,170.272264 746.725472,180.250094 C744.095755,184.625094 741.504717,189.025094 739.000472,193.472264 C738.192453,194.90717 737.251415,195.301038 735.608491,195.239245 C731.067453,195.068962 726.516038,195.16 721.96934,195.173208 C720.966509,195.176038 719.964151,195.284528 718.518868,195.370377 C719.143868,194.279811 719.541981,193.549623 719.972642,192.839717 C730.608491,175.326981 741.405189,157.908113 751.79434,140.250094 C755.028774,134.753396 757.182075,128.617547 759.772642,122.748679 C760.076415,122.061415 760.11934,121.208585 760.09717,120.43783 C760.029717,118.06 758.379717,116.828396 756.298585,117.958585 C754.125943,119.13783 751.925,120.588774 750.316509,122.428396 C743.756132,129.931226 737.191038,137.451509 731.05,145.295849 C721.508019,157.483585 712.35,169.970377 700.757075,180.380755 C694.526415,185.975566 687.915094,190.98783 680.047642,194.07934 C674.067453,196.428868 667.943396,197.343019 661.635377,195.427453 C652.000943,192.501038 645.075472,183.871321 644.39717,173.781226 C644.211321,171.013302 644.368868,168.221792 644.368868,165.441132 C644.172642,165.373208 643.976415,165.305283 643.780189,165.23783 C642.878302,166.364245 641.966981,167.483113 641.076415,168.618019 C634.712264,176.728868 628.104717,184.614245 619.95566,191.036887 C618.542925,192.150094 616.995755,193.103396 615.462736,194.053396 C605.743396,200.081698 594.350943,193.962358 592.073113,183.255755 C590.54717,176.085 592.381604,169.418019 595.87783,163.329811 C600.758019,154.830755 606.225,146.670377 611.291981,138.275094 C613.92217,133.916132 616.273113,129.385472 618.665566,124.886887 C619.691981,122.95434 619.744811,120.819906 618.349057,119.097264 C616.845283,117.242075 614.583491,117.255283 612.460849,117.761887 C607.976415,118.83217 604.389151,121.528396 600.997642,124.486887 C591.974528,132.355283 584.632075,141.670849 578.365094,151.783585 C569.849057,165.524623 561.633019,179.452453 553.391509,193.361415 C552.296698,195.209057 551.39434,195.861415 549.038679,195.620377 C545.020283,195.209057 540.916038,195.626038 536.848113,195.727453 C536.164623,195.744434 535.485849,195.924623 534.508962,196.075094 C534.825943,195.253396 534.976415,194.673679 535.256604,194.165189 C546.341509,174.01283 557.210377,153.737358 568.59717,133.756698 C580.025472,113.705283 591.973585,93.950566 603.689151,74.0628302 C608.87217,65.2642453 614.07783,56.4779245 619.187264,47.6364151 C620.040566,46.1604717 620.909434,45.8118868 622.584906,46.075566 C628.378302,46.9873585 634.139623,46.5543396 640.554717,44.7312264 C621.667453,75.3378302 603.156132,105.334528 584.644811,135.33217 C584.725,135.334057 584.805189,135.335472 584.884906,135.337358 C590.020283,130.38783 595.056132,125.327925 600.340094,120.543019 C602.404245,118.673208 604.911792,117.189717 607.417925,115.92934 C615.985377,111.619906 624.583491,114.772264 628.601887,123.491604 C631.977358,130.814717 631.043396,138.101981 627.459434,144.834528 C623.008019,153.196321 617.749057,161.125094 612.960849,169.312358 C610.113208,174.181226 607.402358,179.138302 604.849528,184.167075 C604.187264,185.471321 604.136792,187.200566 604.183491,188.723208 C604.256132,191.118491 605.600472,192.701509 607.993868,192.629811 C610.25,192.562358 612.719811,192.105283 614.681132,191.050094 C621.018868,187.639245 625.703774,182.23217 630.295283,176.86566 C637.751415,168.151981 644.733491,159.087358 650.776415,149.282642 C655.67783,141.32934 662.833019,135.456226 670.559906,130.365189 C680.562264,123.774623 691.041038,118.070377 702.770755,115.172736 C706.005189,114.373679 709.459434,113.961887 712.778774,114.110943 C722.728774,114.558113 727.668868,123.334528 723.218396,132.248208 C720.439151,137.813774 715.563679,141.094906 710.305189,143.865189 C700.777358,148.884528 690.430189,151.546792 680.045755,154.049151 C676.079245,155.004811 672.059906,155.745849 668.100943,156.730755 C667.133962,156.971792 665.903302,157.574623 665.485849,158.373208 C662.912264,163.295377 660.325472,168.232642 658.191981,173.352453 C657.226887,175.667075 657.004245,178.405755 656.94717,180.96283 C656.781132,188.366132 660.416981,192.146321 667.824528,192.570849 C673.739623,192.91 679.125943,191.116132 684.268868,188.381698 C691.792453,184.381698 697.954717,178.674623 703.857075,172.666604 C716.116038,160.187358 726.147642,145.857642 737.251887,132.418491 C741.34434,127.46566 745.712264,122.690189 750.379245,118.284057 C752.485377,116.295377 755.507075,114.634528 758.331132,114.179811 C764.384906,113.205755 768.9,117.017075 770.39717,123.217075 C771.92217,129.533113 770.806604,135.542075 768.470755,141.417075 C767.292453,144.381226 765.95283,147.281698 764.887736,150.385 C767.687264,147.552925 771.463679,145.790189 773.235377,141.880283 C776.931604,133.725566 781.735377,126.292075 788.383019,120.211887 C791.633491,117.238774 795.107075,114.468491 799.773113,114.052925 C801.846698,113.868019 803.96934,113.866132 805.225943,115.941132 C806.446698,117.956226 806.088679,120.050094 804.993868,121.988774 C802.379245,126.618019 798.392453,129.968962 794.147642,132.957642 C789.27217,136.39066 784.334434,139.778396 779.170283,142.743491 C775.874057,144.635472 773.829717,146.996321 773.568868,150.743019 C773.341509,154.018019 772.903302,157.348679 773.25566,160.578868 C773.841509,165.944906 778.29434,168.63217 783.783962,167.373208 C788.451415,166.303396 792.328302,163.753396 795.617925,160.424151 C798.590094,157.416132 801.231604,154.082642 804.034906,150.906698 C805.176415,149.614245 806.248585,148.220377 807.575943,147.150094 C808.2,146.646321 809.35283,146.797736 810.265566,146.651981 Z" opacity=".119"/>
</svg>
