<svg xmlns="http://www.w3.org/2000/svg" width="24" height="24" viewBox="0 0 24 24">
  <g fill="none" fill-rule="evenodd">
    <rect width="23" height="23" x=".5" y=".5" stroke="#394791" rx="11.5"/>
    <polygon fill="#394791" points="12 7 10.824 7.618 11.049 6.309 10.098 5.382 11.412 5.191 12 4 12.588 5.191 13.902 5.382 12.951 6.309 13.176 7.618"/>
    <polygon fill="#394791" points="17 8 15.824 8.618 16.049 7.309 15.098 6.382 16.412 6.191 17 5 17.588 6.191 18.902 6.382 17.951 7.309 18.176 8.618"/>
    <polygon fill="#394791" points="7 8 5.824 8.618 6.049 7.309 5.098 6.382 6.412 6.191 7 5 7.588 6.191 8.902 6.382 7.951 7.309 8.176 8.618"/>
    <path fill="#7F7F7F" fill-rule="nonzero" d="M8.9214573,16 L7.92784481,16 L5.99361249,12.7101648 L5.99361249,16 L5,16 L5,11 L5.99361249,11 L7.93115685,14.2967033 L7.93115685,11 L8.9214573,11 L8.9214573,16 Z M12.6905607,13.8331044 L10.7828247,13.8331044 L10.7828247,15.1723901 L13.0217648,15.1723901 L13.0217648,16 L9.78921221,16 L9.78921221,11 L13.0151408,11 L13.0151408,11.834478 L10.7828247,11.834478 L10.7828247,13.0260989 L12.6905607,13.0260989 L12.6905607,13.8331044 Z M17.3605394,14.5576923 L18.0096996,11 L19,11 L17.9302106,16 L16.929974,16 L16.1450201,12.6552198 L15.3600662,16 L14.3598297,16 L13.2900402,11 L14.2803407,11 L14.9328129,14.5508242 L15.7277029,11 L16.5689614,11 L17.3605394,14.5576923 Z"/>
  </g>
</svg>
